<?xml version="1.0" encoding="UTF-8"?>
<svg xmlns="http://www.w3.org/2000/svg" xmlns:xlink="http://www.w3.org/1999/xlink" width="1000pt" height="1000pt" viewBox="0 0 1000 1000" version="1.1">
<g id="surface1">
<path style="fill:none;stroke-width:9.823249;stroke-linecap:butt;stroke-linejoin:miter;stroke:rgb(47.058824%,36.862745%,94.117647%);stroke-opacity:1;stroke-miterlimit:10;" d="M 1418.316406 102.570312 L 46.964844 15.660156 L 463.679688 373.664062 L 1418.316406 102.570312 "/>
<path style="fill:none;stroke-width:9.069824;stroke-linecap:butt;stroke-linejoin:miter;stroke:rgb(47.058824%,36.862745%,94.117647%);stroke-opacity:1;stroke-miterlimit:10;" d="M 567.417969 231 C 567.417969 303.027344 509.027344 361.417969 437 361.417969 C 364.972656 361.417969 306.582031 303.027344 306.582031 231 C 306.582031 158.972656 364.972656 100.582031 437 100.582031 C 509.027344 100.582031 567.417969 158.972656 567.417969 231 "/>
<path style="fill:none;stroke-width:0.788411;stroke-linecap:butt;stroke-linejoin:miter;stroke:rgb(99.607843%,38.039216%,0%);stroke-opacity:0.246763;stroke-miterlimit:10;" d="M 362 0 C 362 0 297 1000 73 107 "/>
<path style="fill:none;stroke-width:5.751284;stroke-linecap:butt;stroke-linejoin:miter;stroke:rgb(100%,69.019608%,0%);stroke-opacity:0.196487;stroke-miterlimit:10;" d="M 328 998 L 618 288 "/>
<path style=" stroke:none;fill-rule:nonzero;fill:rgb(100%,69.019608%,0%);fill-opacity:0.0220526;" d="M 1697.226562 95.847656 L 222.785156 975.410156 L 1466.3125 563.515625 L 1697.226562 95.847656 "/>
<path style="fill:none;stroke-width:1.866769;stroke-linecap:butt;stroke-linejoin:miter;stroke:rgb(47.058824%,36.862745%,94.117647%);stroke-opacity:0.287857;stroke-miterlimit:10;" d="M 739 537 C 739 537 997 356 695 215 "/>
<path style="fill:none;stroke-width:2.871794;stroke-linecap:butt;stroke-linejoin:miter;stroke:rgb(100%,69.019608%,0%);stroke-opacity:0.147536;stroke-miterlimit:10;" d="M 0 68 C 0 68 880 18 356 1000 "/>
<path style=" stroke:none;fill-rule:nonzero;fill:rgb(47.058824%,36.862745%,94.117647%);fill-opacity:1;" d="M 52.183594 15.488281 L 278.574219 169.320312 L 689.441406 297.410156 L 52.183594 15.488281 "/>
<path style="fill:none;stroke-width:2.922246;stroke-linecap:butt;stroke-linejoin:miter;stroke:rgb(86.27451%,14.901961%,49.803922%);stroke-opacity:1;stroke-miterlimit:10;" d="M 774 431 C 774 431 940 991 999 856 "/>
<path style="fill:none;stroke-width:7.101325;stroke-linecap:butt;stroke-linejoin:miter;stroke:rgb(47.058824%,36.862745%,94.117647%);stroke-opacity:1;stroke-miterlimit:10;" d="M 847 0 L 799 1000 "/>
<path style="fill:none;stroke-width:3.199432;stroke-linecap:butt;stroke-linejoin:miter;stroke:rgb(47.058824%,36.862745%,94.117647%);stroke-opacity:1;stroke-miterlimit:10;" d="M 252.359375 903 C 252.359375 958.980469 206.980469 1004.359375 151 1004.359375 C 95.019531 1004.359375 49.640625 958.980469 49.640625 903 C 49.640625 847.019531 95.019531 801.640625 151 801.640625 C 206.980469 801.640625 252.359375 847.019531 252.359375 903 "/>
<path style=" stroke:none;fill-rule:nonzero;fill:rgb(86.27451%,14.901961%,49.803922%);fill-opacity:0.631984;" d="M 287.441406 365 C 287.441406 450.296875 218.296875 519.441406 133 519.441406 C 47.703125 519.441406 -21.441406 450.296875 -21.441406 365 C -21.441406 279.703125 47.703125 210.558594 133 210.558594 C 218.296875 210.558594 287.441406 279.703125 287.441406 365 "/>
<path style="fill:none;stroke-width:5.332499;stroke-linecap:butt;stroke-linejoin:miter;stroke:rgb(47.058824%,36.862745%,94.117647%);stroke-opacity:1;stroke-miterlimit:10;" d="M 806 0 L 202 1000 "/>
<path style="fill:none;stroke-width:5.523671;stroke-linecap:butt;stroke-linejoin:miter;stroke:rgb(47.058824%,36.862745%,94.117647%);stroke-opacity:0.905399;stroke-miterlimit:10;" d="M 655 924 C 655 924 925 960 264 489 "/>
<path style=" stroke:none;fill-rule:nonzero;fill:rgb(86.27451%,14.901961%,49.803922%);fill-opacity:1;" d="M 797.660156 206.980469 L 534.25 34.007812 L 1389.558594 286.8125 L 797.660156 206.980469 "/>
<path style=" stroke:none;fill-rule:nonzero;fill:rgb(86.27451%,14.901961%,49.803922%);fill-opacity:0.801253;" d="M 171.761719 775 C 171.761719 861.578125 101.578125 931.761719 15 931.761719 C -71.578125 931.761719 -141.761719 861.578125 -141.761719 775 C -141.761719 688.421875 -71.578125 618.238281 15 618.238281 C 101.578125 618.238281 171.761719 688.421875 171.761719 775 "/>
</g>
</svg>
