<?xml version="1.0" encoding="UTF-8"?>
<svg xmlns="http://www.w3.org/2000/svg" xmlns:xlink="http://www.w3.org/1999/xlink" width="1000pt" height="1000pt" viewBox="0 0 1000 1000" version="1.1">
<g id="surface1">
<rect x="0" y="0" width="1000" height="1000" style="fill:rgb(0%,0%,0%);fill-opacity:1;stroke:none;"/>
<path style="fill:none;stroke-width:4.173696;stroke-linecap:butt;stroke-linejoin:miter;stroke:rgb(100%,69.019608%,0%);stroke-opacity:1;stroke-miterlimit:10;" d="M 639 0 L 984 1000 "/>
<path style="fill:none;stroke-width:4.599731;stroke-linecap:butt;stroke-linejoin:miter;stroke:rgb(99.607843%,38.039216%,0%);stroke-opacity:0.923499;stroke-miterlimit:10;" d="M 111.546875 421.835938 L 787.828125 224.289062 L 364.4375 201.960938 L 111.546875 421.835938 "/>
<path style="fill:none;stroke-width:6.323359;stroke-linecap:butt;stroke-linejoin:miter;stroke:rgb(86.27451%,14.901961%,49.803922%);stroke-opacity:0.0692137;stroke-miterlimit:10;" d="M 946 0 L 167 1000 "/>
<path style="fill:none;stroke-width:0.746826;stroke-linecap:butt;stroke-linejoin:miter;stroke:rgb(100%,69.019608%,0%);stroke-opacity:1;stroke-miterlimit:10;" d="M 556 823 L 474 495 "/>
<path style=" stroke:none;fill-rule:nonzero;fill:rgb(86.27451%,14.901961%,49.803922%);fill-opacity:0.45863;" d="M 689.800781 738 C 689.800781 808.03125 633.03125 864.800781 563 864.800781 C 492.96875 864.800781 436.199219 808.03125 436.199219 738 C 436.199219 667.96875 492.96875 611.199219 563 611.199219 C 633.03125 611.199219 689.800781 667.96875 689.800781 738 "/>
<path style="fill:none;stroke-width:9.320248;stroke-linecap:butt;stroke-linejoin:miter;stroke:rgb(39.215686%,56.078431%,100%);stroke-opacity:0.219783;stroke-miterlimit:10;" d="M 180 0 L 135 1000 "/>
<path style="fill:none;stroke-width:9.23693;stroke-linecap:butt;stroke-linejoin:miter;stroke:rgb(99.607843%,38.039216%,0%);stroke-opacity:1;stroke-miterlimit:10;" d="M 229 0 L 649 1000 "/>
<path style="fill:none;stroke-width:9.573991;stroke-linecap:butt;stroke-linejoin:miter;stroke:rgb(99.607843%,38.039216%,0%);stroke-opacity:0.75207;stroke-miterlimit:10;" d="M 0 563 L 1000 65 "/>
<path style="fill:none;stroke-width:8.398145;stroke-linecap:butt;stroke-linejoin:miter;stroke:rgb(99.607843%,38.039216%,0%);stroke-opacity:0.16985;stroke-miterlimit:10;" d="M 1.390625 17.316406 L 393.480469 469.703125 L 11.078125 520.253906 L 1.390625 17.316406 "/>
<path style="fill:none;stroke-width:2.412658;stroke-linecap:butt;stroke-linejoin:miter;stroke:rgb(47.058824%,36.862745%,94.117647%);stroke-opacity:1;stroke-miterlimit:10;" d="M 1075.273438 173.902344 L 287.941406 56.234375 L 51.457031 408.691406 L 1075.273438 173.902344 "/>
<path style="fill:none;stroke-width:0.556867;stroke-linecap:butt;stroke-linejoin:miter;stroke:rgb(39.215686%,56.078431%,100%);stroke-opacity:1;stroke-miterlimit:10;" d="M 537 90 L 183 255 "/>
<path style="fill:none;stroke-width:8.48382;stroke-linecap:butt;stroke-linejoin:miter;stroke:rgb(99.607843%,38.039216%,0%);stroke-opacity:1;stroke-miterlimit:10;" d="M 899 0 L 127 1000 "/>
<path style="fill:none;stroke-width:3.703537;stroke-linecap:butt;stroke-linejoin:miter;stroke:rgb(86.27451%,14.901961%,49.803922%);stroke-opacity:0.441323;stroke-miterlimit:10;" d="M 0 768 L 1000 428 "/>
<path style="fill:none;stroke-width:9.388843;stroke-linecap:butt;stroke-linejoin:miter;stroke:rgb(39.215686%,56.078431%,100%);stroke-opacity:1;stroke-miterlimit:10;" d="M 555 0 L 253 1000 "/>
<path style="fill:none;stroke-width:5.768581;stroke-linecap:butt;stroke-linejoin:miter;stroke:rgb(47.058824%,36.862745%,94.117647%);stroke-opacity:0.0459413;stroke-miterlimit:10;" d="M 51 0 L 822 1000 "/>
</g>
</svg>
