<?xml version="1.0" encoding="UTF-8"?>
<svg xmlns="http://www.w3.org/2000/svg" xmlns:xlink="http://www.w3.org/1999/xlink" width="1000pt" height="1000pt" viewBox="0 0 1000 1000" version="1.1">
<g id="surface1">
<rect x="0" y="0" width="1000" height="1000" style="fill:rgb(39.215686%,56.078431%,100%);fill-opacity:1;stroke:none;"/>
<path style=" stroke:none;fill-rule:nonzero;fill:rgb(39.215686%,56.078431%,100%);fill-opacity:1;" d="M 422.289062 463 C 422.289062 552.628906 349.628906 625.289062 260 625.289062 C 170.371094 625.289062 97.710938 552.628906 97.710938 463 C 97.710938 373.371094 170.371094 300.710938 260 300.710938 C 349.628906 300.710938 422.289062 373.371094 422.289062 463 "/>
<path style=" stroke:none;fill-rule:nonzero;fill:rgb(100%,69.019608%,0%);fill-opacity:1;" d="M 390.074219 278 C 390.074219 378.003906 309.003906 459.074219 209 459.074219 C 108.996094 459.074219 27.925781 378.003906 27.925781 278 C 27.925781 177.996094 108.996094 96.925781 209 96.925781 C 309.003906 96.925781 390.074219 177.996094 390.074219 278 "/>
<path style="fill:none;stroke-width:2.591971;stroke-linecap:butt;stroke-linejoin:miter;stroke:rgb(86.27451%,14.901961%,49.803922%);stroke-opacity:1;stroke-miterlimit:10;" d="M 1160.121094 231 C 1160.121094 340.417969 1071.417969 429.121094 962 429.121094 C 852.582031 429.121094 763.878906 340.417969 763.878906 231 C 763.878906 121.582031 852.582031 32.878906 962 32.878906 C 1071.417969 32.878906 1160.121094 121.582031 1160.121094 231 "/>
<path style="fill:none;stroke-width:6.450096;stroke-linecap:butt;stroke-linejoin:miter;stroke:rgb(99.607843%,38.039216%,0%);stroke-opacity:1;stroke-miterlimit:10;" d="M 0 676 L 1000 442 "/>
<path style="fill:none;stroke-width:0.88719;stroke-linecap:butt;stroke-linejoin:miter;stroke:rgb(99.607843%,38.039216%,0%);stroke-opacity:0.890295;stroke-miterlimit:10;" d="M 759.753906 238.175781 L 804.425781 337.035156 L 405.140625 13.664062 L 759.753906 238.175781 "/>
<path style="fill:none;stroke-width:0.181807;stroke-linecap:butt;stroke-linejoin:miter;stroke:rgb(47.058824%,36.862745%,94.117647%);stroke-opacity:0.544538;stroke-miterlimit:10;" d="M 755 753 L 7 555 "/>
<path style="fill:none;stroke-width:1.684943;stroke-linecap:butt;stroke-linejoin:miter;stroke:rgb(47.058824%,36.862745%,94.117647%);stroke-opacity:0.850656;stroke-miterlimit:10;" d="M 0 130 L 1000 438 "/>
<path style="fill:none;stroke-width:2.960301;stroke-linecap:butt;stroke-linejoin:miter;stroke:rgb(86.27451%,14.901961%,49.803922%);stroke-opacity:0.938029;stroke-miterlimit:10;" d="M 497 0 L 568 1000 "/>
<path style="fill:none;stroke-width:5.390512;stroke-linecap:butt;stroke-linejoin:miter;stroke:rgb(39.215686%,56.078431%,100%);stroke-opacity:0.388156;stroke-miterlimit:10;" d="M 0 343 L 1000 866 "/>
<path style=" stroke:none;fill-rule:nonzero;fill:rgb(99.607843%,38.039216%,0%);fill-opacity:0.766438;" d="M 723.335938 665 C 723.335938 745.265625 658.265625 810.335938 578 810.335938 C 497.734375 810.335938 432.664062 745.265625 432.664062 665 C 432.664062 584.734375 497.734375 519.664062 578 519.664062 C 658.265625 519.664062 723.335938 584.734375 723.335938 665 "/>
<path style=" stroke:none;fill-rule:nonzero;fill:rgb(99.607843%,38.039216%,0%);fill-opacity:1;" d="M 1180.230469 640.652344 L 230.453125 75.878906 L 416.472656 598.894531 L 1180.230469 640.652344 "/>
<path style="fill:none;stroke-width:6.893537;stroke-linecap:butt;stroke-linejoin:miter;stroke:rgb(39.215686%,56.078431%,100%);stroke-opacity:1;stroke-miterlimit:10;" d="M 550 894 C 550 894 732 778 574 790 "/>
<path style="fill:none;stroke-width:0.373091;stroke-linecap:butt;stroke-linejoin:miter;stroke:rgb(100%,69.019608%,0%);stroke-opacity:1;stroke-miterlimit:10;" d="M 0 965 L 1000 747 "/>
<path style=" stroke:none;fill-rule:nonzero;fill:rgb(47.058824%,36.862745%,94.117647%);fill-opacity:1;" d="M 907.222656 875 C 907.222656 924.277344 867.277344 964.222656 818 964.222656 C 768.722656 964.222656 728.777344 924.277344 728.777344 875 C 728.777344 825.722656 768.722656 785.777344 818 785.777344 C 867.277344 785.777344 907.222656 825.722656 907.222656 875 "/>
<path style="fill:none;stroke-width:1.679217;stroke-linecap:butt;stroke-linejoin:miter;stroke:rgb(99.607843%,38.039216%,0%);stroke-opacity:0.99196;stroke-miterlimit:10;" d="M 307 0 L 897 1000 "/>
<path style=" stroke:none;fill-rule:nonzero;fill:rgb(86.27451%,14.901961%,49.803922%);fill-opacity:0.301814;" d="M 36.476562 804.183594 L 100.742188 956.730469 L 464.085938 89.300781 L 36.476562 804.183594 "/>
<path style=" stroke:none;fill-rule:nonzero;fill:rgb(99.607843%,38.039216%,0%);fill-opacity:1;" d="M 1038.421875 353 C 1038.421875 385.816406 1011.816406 412.421875 979 412.421875 C 946.183594 412.421875 919.578125 385.816406 919.578125 353 C 919.578125 320.183594 946.183594 293.578125 979 293.578125 C 1011.816406 293.578125 1038.421875 320.183594 1038.421875 353 "/>
<path style="fill:none;stroke-width:3.475167;stroke-linecap:butt;stroke-linejoin:miter;stroke:rgb(39.215686%,56.078431%,100%);stroke-opacity:0.823414;stroke-miterlimit:10;" d="M 108 51 L 12 58 "/>
<path style="fill:none;stroke-width:7.334675;stroke-linecap:butt;stroke-linejoin:miter;stroke:rgb(99.607843%,38.039216%,0%);stroke-opacity:0.182906;stroke-miterlimit:10;" d="M 668.488281 18.890625 L 345.714844 124.304688 L 1221.394531 25.441406 L 668.488281 18.890625 "/>
<path style="fill:none;stroke-width:1.380339;stroke-linecap:butt;stroke-linejoin:miter;stroke:rgb(99.607843%,38.039216%,0%);stroke-opacity:1;stroke-miterlimit:10;" d="M 923.871094 535 C 923.871094 661.402344 821.402344 763.871094 695 763.871094 C 568.597656 763.871094 466.128906 661.402344 466.128906 535 C 466.128906 408.597656 568.597656 306.128906 695 306.128906 C 821.402344 306.128906 923.871094 408.597656 923.871094 535 "/>
<path style="fill:none;stroke-width:3.269636;stroke-linecap:butt;stroke-linejoin:miter;stroke:rgb(99.607843%,38.039216%,0%);stroke-opacity:0.387275;stroke-miterlimit:10;" d="M 989 0 L 250 1000 "/>
<path style="fill:none;stroke-width:0.246491;stroke-linecap:butt;stroke-linejoin:miter;stroke:rgb(100%,69.019608%,0%);stroke-opacity:1;stroke-miterlimit:10;" d="M 592 496 C 592 496 98 122 501 528 "/>
<path style="fill:none;stroke-width:7.452957;stroke-linecap:butt;stroke-linejoin:miter;stroke:rgb(100%,69.019608%,0%);stroke-opacity:0.699707;stroke-miterlimit:10;" d="M 0 659 C 0 659 19 434 276 1000 "/>
</g>
</svg>
