<?xml version="1.0" encoding="UTF-8"?>
<svg xmlns="http://www.w3.org/2000/svg" xmlns:xlink="http://www.w3.org/1999/xlink" width="1000pt" height="1000pt" viewBox="0 0 1000 1000" version="1.1">
<g id="surface1">
<rect x="0" y="0" width="1000" height="1000" style="fill:rgb(99.607843%,38.039216%,0%);fill-opacity:1;stroke:none;"/>
<path style="fill:none;stroke-width:3.496356;stroke-linecap:butt;stroke-linejoin:miter;stroke:rgb(39.215686%,56.078431%,100%);stroke-opacity:1;stroke-miterlimit:10;" d="M 1181.71875 660.554688 L 1040.714844 220.296875 L 1351.734375 288.066406 L 1181.71875 660.554688 "/>
<path style=" stroke:none;fill-rule:nonzero;fill:rgb(47.058824%,36.862745%,94.117647%);fill-opacity:1;" d="M 386.210938 23 C 386.210938 85.523438 335.523438 136.210938 273 136.210938 C 210.476562 136.210938 159.789062 85.523438 159.789062 23 C 159.789062 -39.523438 210.476562 -90.210938 273 -90.210938 C 335.523438 -90.210938 386.210938 -39.523438 386.210938 23 "/>
<path style="fill:none;stroke-width:3.864964;stroke-linecap:butt;stroke-linejoin:miter;stroke:rgb(86.27451%,14.901961%,49.803922%);stroke-opacity:1;stroke-miterlimit:10;" d="M 0 824 L 1000 304 "/>
<path style="fill:none;stroke-width:1.604129;stroke-linecap:butt;stroke-linejoin:miter;stroke:rgb(86.27451%,14.901961%,49.803922%);stroke-opacity:0.739813;stroke-miterlimit:10;" d="M 364.039062 45.292969 L 927.636719 127.832031 L 1.90625 133.007812 L 364.039062 45.292969 "/>
<path style="fill:none;stroke-width:4.238207;stroke-linecap:butt;stroke-linejoin:miter;stroke:rgb(86.27451%,14.901961%,49.803922%);stroke-opacity:0.485097;stroke-miterlimit:10;" d="M 0 140 L 1000 208 "/>
<path style=" stroke:none;fill-rule:nonzero;fill:rgb(39.215686%,56.078431%,100%);fill-opacity:1;" d="M 66.511719 53.625 L 283.839844 192.152344 L 79.496094 36.140625 L 66.511719 53.625 "/>
<path style="fill:none;stroke-width:5.650616;stroke-linecap:butt;stroke-linejoin:miter;stroke:rgb(99.607843%,38.039216%,0%);stroke-opacity:0.64938;stroke-miterlimit:10;" d="M 33 0 C 33 0 340 1000 441 317 "/>
<path style="fill:none;stroke-width:5.497683;stroke-linecap:butt;stroke-linejoin:miter;stroke:rgb(39.215686%,56.078431%,100%);stroke-opacity:0.484589;stroke-miterlimit:10;" d="M 768 0 L 3 1000 "/>
<path style="fill:none;stroke-width:1.872073;stroke-linecap:butt;stroke-linejoin:miter;stroke:rgb(47.058824%,36.862745%,94.117647%);stroke-opacity:1;stroke-miterlimit:10;" d="M 536 696 L 247 142 "/>
<path style="fill:none;stroke-width:9.451914;stroke-linecap:butt;stroke-linejoin:miter;stroke:rgb(100%,69.019608%,0%);stroke-opacity:1;stroke-miterlimit:10;" d="M 737 684 L 123 457 "/>
<path style=" stroke:none;fill-rule:nonzero;fill:rgb(47.058824%,36.862745%,94.117647%);fill-opacity:1;" d="M 490.191406 866 C 490.191406 922.992188 443.992188 969.191406 387 969.191406 C 330.007812 969.191406 283.808594 922.992188 283.808594 866 C 283.808594 809.007812 330.007812 762.808594 387 762.808594 C 443.992188 762.808594 490.191406 809.007812 490.191406 866 "/>
<path style=" stroke:none;fill-rule:nonzero;fill:rgb(100%,69.019608%,0%);fill-opacity:1;" d="M 1221.324219 97.984375 L 1020.503906 275.027344 L 992.035156 745.457031 L 1221.324219 97.984375 "/>
<path style="fill:none;stroke-width:9.887629;stroke-linecap:butt;stroke-linejoin:miter;stroke:rgb(100%,69.019608%,0%);stroke-opacity:1;stroke-miterlimit:10;" d="M 0 199 C 0 199 347 671 26 1000 "/>
<path style="fill:none;stroke-width:4.264332;stroke-linecap:butt;stroke-linejoin:miter;stroke:rgb(39.215686%,56.078431%,100%);stroke-opacity:1;stroke-miterlimit:10;" d="M 0 347 L 1000 55 "/>
<path style="fill:none;stroke-width:8.240156;stroke-linecap:butt;stroke-linejoin:miter;stroke:rgb(47.058824%,36.862745%,94.117647%);stroke-opacity:1;stroke-miterlimit:10;" d="M 848 197 L 700 211 "/>
<path style="fill:none;stroke-width:0.417275;stroke-linecap:butt;stroke-linejoin:miter;stroke:rgb(100%,69.019608%,0%);stroke-opacity:0.311861;stroke-miterlimit:10;" d="M 321 328 L 827 446 "/>
<path style="fill:none;stroke-width:0.14389;stroke-linecap:butt;stroke-linejoin:miter;stroke:rgb(39.215686%,56.078431%,100%);stroke-opacity:0.835964;stroke-miterlimit:10;" d="M 729 0 L 607 1000 "/>
<path style="fill:none;stroke-width:2.813247;stroke-linecap:butt;stroke-linejoin:miter;stroke:rgb(39.215686%,56.078431%,100%);stroke-opacity:1;stroke-miterlimit:10;" d="M 0 327 L 1000 292 "/>
<path style="fill:none;stroke-width:9.019627;stroke-linecap:butt;stroke-linejoin:miter;stroke:rgb(47.058824%,36.862745%,94.117647%);stroke-opacity:1;stroke-miterlimit:10;" d="M 0 746 L 1000 130 "/>
<path style=" stroke:none;fill-rule:nonzero;fill:rgb(86.27451%,14.901961%,49.803922%);fill-opacity:1;" d="M 1040.464844 312 C 1040.464844 475.730469 907.730469 608.464844 744 608.464844 C 580.269531 608.464844 447.535156 475.730469 447.535156 312 C 447.535156 148.269531 580.269531 15.535156 744 15.535156 C 907.730469 15.535156 1040.464844 148.269531 1040.464844 312 "/>
<path style="fill:none;stroke-width:6.203613;stroke-linecap:butt;stroke-linejoin:miter;stroke:rgb(47.058824%,36.862745%,94.117647%);stroke-opacity:1;stroke-miterlimit:10;" d="M 19.785156 564.992188 L 133.4375 385.925781 L 333.351562 1085.117188 L 19.785156 564.992188 "/>
<path style="fill:none;stroke-width:3.938412;stroke-linecap:butt;stroke-linejoin:miter;stroke:rgb(86.27451%,14.901961%,49.803922%);stroke-opacity:0.686593;stroke-miterlimit:10;" d="M 322.890625 291.828125 L 1970.214844 1022.691406 L 550.976562 230.191406 L 322.890625 291.828125 "/>
<path style="fill:none;stroke-width:1.631508;stroke-linecap:butt;stroke-linejoin:miter;stroke:rgb(47.058824%,36.862745%,94.117647%);stroke-opacity:0.495627;stroke-miterlimit:10;" d="M 977 0 L 998 1000 "/>
<path style="fill:none;stroke-width:4.552984;stroke-linecap:butt;stroke-linejoin:miter;stroke:rgb(99.607843%,38.039216%,0%);stroke-opacity:1;stroke-miterlimit:10;" d="M 526.132812 957 C 526.132812 1058.695312 443.695312 1141.132812 342 1141.132812 C 240.304688 1141.132812 157.867188 1058.695312 157.867188 957 C 157.867188 855.304688 240.304688 772.867188 342 772.867188 C 443.695312 772.867188 526.132812 855.304688 526.132812 957 "/>
<path style="fill:none;stroke-width:7.907113;stroke-linecap:butt;stroke-linejoin:miter;stroke:rgb(100%,69.019608%,0%);stroke-opacity:0.0282435;stroke-miterlimit:10;" d="M 678.289062 60.304688 L 672.144531 333.121094 L 251.183594 675.734375 L 678.289062 60.304688 "/>
<path style="fill:none;stroke-width:6.564909;stroke-linecap:butt;stroke-linejoin:miter;stroke:rgb(47.058824%,36.862745%,94.117647%);stroke-opacity:0.901143;stroke-miterlimit:10;" d="M 549 905 C 549 905 997 554 637 920 "/>
<path style="fill:none;stroke-width:7.48952;stroke-linecap:butt;stroke-linejoin:miter;stroke:rgb(99.607843%,38.039216%,0%);stroke-opacity:0.0949786;stroke-miterlimit:10;" d="M 0 1000 L 1000 778 "/>
<path style="fill:none;stroke-width:2.638477;stroke-linecap:butt;stroke-linejoin:miter;stroke:rgb(47.058824%,36.862745%,94.117647%);stroke-opacity:0.0738785;stroke-miterlimit:10;" d="M 652 0 L 752 1000 "/>
</g>
</svg>
