<?xml version="1.0" encoding="UTF-8"?>
<svg xmlns="http://www.w3.org/2000/svg" xmlns:xlink="http://www.w3.org/1999/xlink" width="1000pt" height="1000pt" viewBox="0 0 1000 1000" version="1.1">
<g id="surface1">
<rect x="0" y="0" width="1000" height="1000" style="fill:rgb(100%,69.019608%,0%);fill-opacity:1;stroke:none;"/>
<path style="fill:none;stroke-width:5.056771;stroke-linecap:butt;stroke-linejoin:miter;stroke:rgb(99.607843%,38.039216%,0%);stroke-opacity:0.0457625;stroke-miterlimit:10;" d="M 438 0 L 779 1000 "/>
<path style="fill:none;stroke-width:7.551827;stroke-linecap:butt;stroke-linejoin:miter;stroke:rgb(99.607843%,38.039216%,0%);stroke-opacity:1;stroke-miterlimit:10;" d="M 68 0 L 299 1000 "/>
<path style="fill:none;stroke-width:3.576636;stroke-linecap:butt;stroke-linejoin:miter;stroke:rgb(47.058824%,36.862745%,94.117647%);stroke-opacity:0.55853;stroke-miterlimit:10;" d="M 595 404 L 424 968 "/>
<path style="fill:none;stroke-width:6.758997;stroke-linecap:butt;stroke-linejoin:miter;stroke:rgb(39.215686%,56.078431%,100%);stroke-opacity:1;stroke-miterlimit:10;" d="M 196 715 L 720 643 "/>
<path style=" stroke:none;fill-rule:nonzero;fill:rgb(99.607843%,38.039216%,0%);fill-opacity:0.483033;" d="M 1811.128906 321.09375 L 382.351562 197.578125 L 229.6875 751.328125 L 1811.128906 321.09375 "/>
<path style=" stroke:none;fill-rule:nonzero;fill:rgb(39.215686%,56.078431%,100%);fill-opacity:1;" d="M 608.175781 581 C 608.175781 621.964844 574.964844 655.175781 534 655.175781 C 493.035156 655.175781 459.824219 621.964844 459.824219 581 C 459.824219 540.035156 493.035156 506.824219 534 506.824219 C 574.964844 506.824219 608.175781 540.035156 608.175781 581 "/>
<path style="fill:none;stroke-width:7.329801;stroke-linecap:butt;stroke-linejoin:miter;stroke:rgb(39.215686%,56.078431%,100%);stroke-opacity:1;stroke-miterlimit:10;" d="M 41.140625 249.660156 L 92.023438 497.324219 L 1501.808594 1539.796875 L 41.140625 249.660156 "/>
<path style="fill:none;stroke-width:0.26932;stroke-linecap:butt;stroke-linejoin:miter;stroke:rgb(99.607843%,38.039216%,0%);stroke-opacity:0.924337;stroke-miterlimit:10;" d="M 583 289 C 583 289 158 406 11 495 "/>
<path style="fill:none;stroke-width:2.300401;stroke-linecap:butt;stroke-linejoin:miter;stroke:rgb(99.607843%,38.039216%,0%);stroke-opacity:0.661611;stroke-miterlimit:10;" d="M 0 71 C 0 71 705 109 595 1000 "/>
<path style="fill:none;stroke-width:3.882104;stroke-linecap:butt;stroke-linejoin:miter;stroke:rgb(86.27451%,14.901961%,49.803922%);stroke-opacity:1;stroke-miterlimit:10;" d="M 0 983 L 1000 5 "/>
<path style="fill:none;stroke-width:2.346393;stroke-linecap:butt;stroke-linejoin:miter;stroke:rgb(39.215686%,56.078431%,100%);stroke-opacity:1;stroke-miterlimit:10;" d="M 0 719 C 0 719 899 73 153 1000 "/>
<path style="fill:none;stroke-width:5.656529;stroke-linecap:butt;stroke-linejoin:miter;stroke:rgb(99.607843%,38.039216%,0%);stroke-opacity:1;stroke-miterlimit:10;" d="M 371.761719 166.367188 L 176.226562 310.945312 L 87.707031 279.15625 L 371.761719 166.367188 "/>
<path style="fill:none;stroke-width:0.506841;stroke-linecap:butt;stroke-linejoin:miter;stroke:rgb(100%,69.019608%,0%);stroke-opacity:1;stroke-miterlimit:10;" d="M 518 322 L 570 820 "/>
<path style="fill:none;stroke-width:6.262987;stroke-linecap:butt;stroke-linejoin:miter;stroke:rgb(99.607843%,38.039216%,0%);stroke-opacity:0.849888;stroke-miterlimit:10;" d="M 0 381 L 1000 208 "/>
<path style="fill:none;stroke-width:8.528861;stroke-linecap:butt;stroke-linejoin:miter;stroke:rgb(100%,69.019608%,0%);stroke-opacity:0.694037;stroke-miterlimit:10;" d="M 623 0 L 272 1000 "/>
</g>
</svg>
