<?xml version="1.0" encoding="UTF-8"?>
<svg xmlns="http://www.w3.org/2000/svg" xmlns:xlink="http://www.w3.org/1999/xlink" width="1000pt" height="1000pt" viewBox="0 0 1000 1000" version="1.1">
<g id="surface1">
<rect x="0" y="0" width="1000" height="1000" style="fill:rgb(86.27451%,14.901961%,49.803922%);fill-opacity:1;stroke:none;"/>
<path style="fill:none;stroke-width:2.113114;stroke-linecap:butt;stroke-linejoin:miter;stroke:rgb(86.27451%,14.901961%,49.803922%);stroke-opacity:1;stroke-miterlimit:10;" d="M 586 0 C 586 0 436 1000 926 853 "/>
<path style=" stroke:none;fill-rule:nonzero;fill:rgb(47.058824%,36.862745%,94.117647%);fill-opacity:1;" d="M 507.4375 1303.03125 L 179.316406 211.886719 L 709.757812 134.777344 L 507.4375 1303.03125 "/>
<path style="fill:none;stroke-width:9.318844;stroke-linecap:butt;stroke-linejoin:miter;stroke:rgb(99.607843%,38.039216%,0%);stroke-opacity:0.73052;stroke-miterlimit:10;" d="M 406 0 L 849 1000 "/>
<path style="fill:none;stroke-width:9.363966;stroke-linecap:butt;stroke-linejoin:miter;stroke:rgb(99.607843%,38.039216%,0%);stroke-opacity:1;stroke-miterlimit:10;" d="M 280.933594 47.789062 L 297.460938 65.027344 L 424.316406 14.480469 L 280.933594 47.789062 "/>
<path style="fill:none;stroke-width:0.888641;stroke-linecap:butt;stroke-linejoin:miter;stroke:rgb(99.607843%,38.039216%,0%);stroke-opacity:1;stroke-miterlimit:10;" d="M 327 53 L 904 119 "/>
<path style="fill:none;stroke-width:2.459061;stroke-linecap:butt;stroke-linejoin:miter;stroke:rgb(86.27451%,14.901961%,49.803922%);stroke-opacity:0.805183;stroke-miterlimit:10;" d="M 598 0 C 598 0 755 1000 674 853 "/>
<path style="fill:none;stroke-width:3.449444;stroke-linecap:butt;stroke-linejoin:miter;stroke:rgb(99.607843%,38.039216%,0%);stroke-opacity:0.0839688;stroke-miterlimit:10;" d="M 0 909 L 1000 982 "/>
<path style="fill:none;stroke-width:7.584673;stroke-linecap:butt;stroke-linejoin:miter;stroke:rgb(86.27451%,14.901961%,49.803922%);stroke-opacity:1;stroke-miterlimit:10;" d="M 925 0 L 576 1000 "/>
<path style="fill:none;stroke-width:4.028891;stroke-linecap:butt;stroke-linejoin:miter;stroke:rgb(39.215686%,56.078431%,100%);stroke-opacity:0.866038;stroke-miterlimit:10;" d="M 669 0 C 669 0 689 1000 465 218 "/>
<path style="fill:none;stroke-width:1.261692;stroke-linecap:butt;stroke-linejoin:miter;stroke:rgb(47.058824%,36.862745%,94.117647%);stroke-opacity:1;stroke-miterlimit:10;" d="M 924.109375 120 C 924.109375 190.199219 867.199219 247.109375 797 247.109375 C 726.800781 247.109375 669.890625 190.199219 669.890625 120 C 669.890625 49.800781 726.800781 -7.109375 797 -7.109375 C 867.199219 -7.109375 924.109375 49.800781 924.109375 120 "/>
<path style="fill:none;stroke-width:4.596256;stroke-linecap:butt;stroke-linejoin:miter;stroke:rgb(47.058824%,36.862745%,94.117647%);stroke-opacity:1;stroke-miterlimit:10;" d="M 0 85 L 1000 232 "/>
<path style="fill:none;stroke-width:9.089775;stroke-linecap:butt;stroke-linejoin:miter;stroke:rgb(47.058824%,36.862745%,94.117647%);stroke-opacity:1;stroke-miterlimit:10;" d="M 439 0 L 629 1000 "/>
<path style="fill:none;stroke-width:2.932121;stroke-linecap:butt;stroke-linejoin:miter;stroke:rgb(47.058824%,36.862745%,94.117647%);stroke-opacity:1;stroke-miterlimit:10;" d="M 0 496 C 0 496 666 618 959 1000 "/>
<path style=" stroke:none;fill-rule:nonzero;fill:rgb(100%,69.019608%,0%);fill-opacity:1;" d="M 1816.609375 406.921875 L 42.316406 361.40625 L 158.957031 241.164062 L 1816.609375 406.921875 "/>
<path style="fill:none;stroke-width:5.789182;stroke-linecap:butt;stroke-linejoin:miter;stroke:rgb(47.058824%,36.862745%,94.117647%);stroke-opacity:1;stroke-miterlimit:10;" d="M 461 912 C 461 912 331 815 252 145 "/>
<path style="fill:none;stroke-width:4.444214;stroke-linecap:butt;stroke-linejoin:miter;stroke:rgb(47.058824%,36.862745%,94.117647%);stroke-opacity:0.346375;stroke-miterlimit:10;" d="M 548 0 L 302 1000 "/>
<path style="fill:none;stroke-width:1.729404;stroke-linecap:butt;stroke-linejoin:miter;stroke:rgb(99.607843%,38.039216%,0%);stroke-opacity:0.467375;stroke-miterlimit:10;" d="M 947 0 C 947 0 134 1000 318 945 "/>
<path style=" stroke:none;fill-rule:nonzero;fill:rgb(99.607843%,38.039216%,0%);fill-opacity:0.125523;" d="M 154.898438 204 C 154.898438 269.113281 102.113281 321.898438 37 321.898438 C -28.113281 321.898438 -80.898438 269.113281 -80.898438 204 C -80.898438 138.886719 -28.113281 86.101562 37 86.101562 C 102.113281 86.101562 154.898438 138.886719 154.898438 204 "/>
<path style=" stroke:none;fill-rule:nonzero;fill:rgb(39.215686%,56.078431%,100%);fill-opacity:1;" d="M 779.402344 438 C 779.402344 602.800781 645.800781 736.402344 481 736.402344 C 316.199219 736.402344 182.597656 602.800781 182.597656 438 C 182.597656 273.199219 316.199219 139.597656 481 139.597656 C 645.800781 139.597656 779.402344 273.199219 779.402344 438 "/>
<path style="fill:none;stroke-width:8.607064;stroke-linecap:butt;stroke-linejoin:miter;stroke:rgb(39.215686%,56.078431%,100%);stroke-opacity:1;stroke-miterlimit:10;" d="M 311.21875 147 C 311.21875 158.71875 301.71875 168.21875 290 168.21875 C 278.28125 168.21875 268.78125 158.71875 268.78125 147 C 268.78125 135.28125 278.28125 125.78125 290 125.78125 C 301.71875 125.78125 311.21875 135.28125 311.21875 147 "/>
<path style="fill:none;stroke-width:1.403589;stroke-linecap:butt;stroke-linejoin:miter;stroke:rgb(100%,69.019608%,0%);stroke-opacity:0.0691351;stroke-miterlimit:10;" d="M 788 661 C 788 661 974 3 21 491 "/>
<path style="fill:none;stroke-width:5.736006;stroke-linecap:butt;stroke-linejoin:miter;stroke:rgb(100%,69.019608%,0%);stroke-opacity:1;stroke-miterlimit:10;" d="M 0 934 C 0 934 973 109 804 1000 "/>
</g>
</svg>
