<?xml version="1.0" encoding="UTF-8"?>
<svg xmlns="http://www.w3.org/2000/svg" xmlns:xlink="http://www.w3.org/1999/xlink" width="1000pt" height="1000pt" viewBox="0 0 1000 1000" version="1.1">
<g id="surface1">
<rect x="0" y="0" width="1000" height="1000" style="fill:rgb(47.058824%,36.862745%,94.117647%);fill-opacity:1;stroke:none;"/>
<path style="fill:none;stroke-width:6.282443;stroke-linecap:butt;stroke-linejoin:miter;stroke:rgb(100%,69.019608%,0%);stroke-opacity:0.788038;stroke-miterlimit:10;" d="M 991 0 C 991 0 897 1000 956 890 "/>
<path style=" stroke:none;fill-rule:nonzero;fill:rgb(86.27451%,14.901961%,49.803922%);fill-opacity:0.850796;" d="M 1706.246094 458.957031 L 800.824219 87.980469 L 611.554688 290.78125 L 1706.246094 458.957031 "/>
<path style="fill:none;stroke-width:6.576741;stroke-linecap:butt;stroke-linejoin:miter;stroke:rgb(39.215686%,56.078431%,100%);stroke-opacity:0.74313;stroke-miterlimit:10;" d="M 155 0 C 155 0 560 1000 675 981 "/>
<path style="fill:none;stroke-width:0.688644;stroke-linecap:butt;stroke-linejoin:miter;stroke:rgb(86.27451%,14.901961%,49.803922%);stroke-opacity:1;stroke-miterlimit:10;" d="M 61 0 L 932 1000 "/>
<path style=" stroke:none;fill-rule:nonzero;fill:rgb(86.27451%,14.901961%,49.803922%);fill-opacity:0.0818857;" d="M 261.644531 43 C 261.644531 97.480469 217.480469 141.644531 163 141.644531 C 108.519531 141.644531 64.355469 97.480469 64.355469 43 C 64.355469 -11.480469 108.519531 -55.644531 163 -55.644531 C 217.480469 -55.644531 261.644531 -11.480469 261.644531 43 "/>
<path style=" stroke:none;fill-rule:nonzero;fill:rgb(47.058824%,36.862745%,94.117647%);fill-opacity:0.971315;" d="M 389.25 653.273438 L 559.9375 6.773438 L 136.148438 414.628906 L 389.25 653.273438 "/>
<path style="fill:none;stroke-width:4.604524;stroke-linecap:butt;stroke-linejoin:miter;stroke:rgb(100%,69.019608%,0%);stroke-opacity:1;stroke-miterlimit:10;" d="M 600.652344 1239.367188 L 905.644531 49.179688 L 795.703125 35.558594 L 600.652344 1239.367188 "/>
<path style="fill:none;stroke-width:3.56904;stroke-linecap:butt;stroke-linejoin:miter;stroke:rgb(99.607843%,38.039216%,0%);stroke-opacity:0.54041;stroke-miterlimit:10;" d="M 501.519531 201.054688 L 12.859375 1.957031 L 1603.730469 502.59375 L 501.519531 201.054688 "/>
<path style="fill:none;stroke-width:4.379986;stroke-linecap:butt;stroke-linejoin:miter;stroke:rgb(39.215686%,56.078431%,100%);stroke-opacity:0.098907;stroke-miterlimit:10;" d="M 180 197 L 660 660 "/>
<path style="fill:none;stroke-width:1.105255;stroke-linecap:butt;stroke-linejoin:miter;stroke:rgb(39.215686%,56.078431%,100%);stroke-opacity:1;stroke-miterlimit:10;" d="M 368 851 L 157 483 "/>
<path style="fill:none;stroke-width:2.262158;stroke-linecap:butt;stroke-linejoin:miter;stroke:rgb(99.607843%,38.039216%,0%);stroke-opacity:1;stroke-miterlimit:10;" d="M 0 381 L 1000 952 "/>
<path style="fill:none;stroke-width:2.220632;stroke-linecap:butt;stroke-linejoin:miter;stroke:rgb(86.27451%,14.901961%,49.803922%);stroke-opacity:0.930363;stroke-miterlimit:10;" d="M 896.941406 905 C 896.941406 1067.890625 764.890625 1199.941406 602 1199.941406 C 439.109375 1199.941406 307.058594 1067.890625 307.058594 905 C 307.058594 742.109375 439.109375 610.058594 602 610.058594 C 764.890625 610.058594 896.941406 742.109375 896.941406 905 "/>
<path style=" stroke:none;fill-rule:nonzero;fill:rgb(39.215686%,56.078431%,100%);fill-opacity:0.853511;" d="M 379.679688 107 C 379.679688 107.90625 378.320312 107.90625 378.320312 107 C 378.320312 106.09375 379.679688 106.09375 379.679688 107 "/>
<path style="fill:none;stroke-width:1.057592;stroke-linecap:butt;stroke-linejoin:miter;stroke:rgb(100%,69.019608%,0%);stroke-opacity:1;stroke-miterlimit:10;" d="M 0 892 L 1000 465 "/>
<path style="fill:none;stroke-width:4.483137;stroke-linecap:butt;stroke-linejoin:miter;stroke:rgb(100%,69.019608%,0%);stroke-opacity:1;stroke-miterlimit:10;" d="M 1717.578125 507.90625 L 21.277344 20.066406 L 882.628906 1296.828125 L 1717.578125 507.90625 "/>
<path style=" stroke:none;fill-rule:nonzero;fill:rgb(99.607843%,38.039216%,0%);fill-opacity:1;" d="M 180.398438 16 C 180.398438 67.03125 139.03125 108.398438 88 108.398438 C 36.96875 108.398438 -4.398438 67.03125 -4.398438 16 C -4.398438 -35.03125 36.96875 -76.398438 88 -76.398438 C 139.03125 -76.398438 180.398438 -35.03125 180.398438 16 "/>
<path style="fill:none;stroke-width:4.660168;stroke-linecap:butt;stroke-linejoin:miter;stroke:rgb(39.215686%,56.078431%,100%);stroke-opacity:1;stroke-miterlimit:10;" d="M 0 967 L 1000 876 "/>
<path style="fill:none;stroke-width:7.963779;stroke-linecap:butt;stroke-linejoin:miter;stroke:rgb(86.27451%,14.901961%,49.803922%);stroke-opacity:0.969027;stroke-miterlimit:10;" d="M 2 0 L 164 1000 "/>
<path style="fill:none;stroke-width:1.623819;stroke-linecap:butt;stroke-linejoin:miter;stroke:rgb(39.215686%,56.078431%,100%);stroke-opacity:1;stroke-miterlimit:10;" d="M 471 807 C 471 807 68 993 78 380 "/>
<path style="fill:none;stroke-width:9.649589;stroke-linecap:butt;stroke-linejoin:miter;stroke:rgb(100%,69.019608%,0%);stroke-opacity:1;stroke-miterlimit:10;" d="M 651 0 L 103 1000 "/>
<path style="fill:none;stroke-width:2.502361;stroke-linecap:butt;stroke-linejoin:miter;stroke:rgb(99.607843%,38.039216%,0%);stroke-opacity:0.786199;stroke-miterlimit:10;" d="M 766.046875 771 C 766.046875 896.949219 663.949219 999.046875 538 999.046875 C 412.050781 999.046875 309.953125 896.949219 309.953125 771 C 309.953125 645.050781 412.050781 542.953125 538 542.953125 C 663.949219 542.953125 766.046875 645.050781 766.046875 771 "/>
<path style="fill:none;stroke-width:0.73699;stroke-linecap:butt;stroke-linejoin:miter;stroke:rgb(86.27451%,14.901961%,49.803922%);stroke-opacity:0.028431;stroke-miterlimit:10;" d="M 38.226562 1115.046875 L 1054.359375 1685.988281 L 1105.667969 190.214844 L 38.226562 1115.046875 "/>
<path style="fill:none;stroke-width:6.106471;stroke-linecap:butt;stroke-linejoin:miter;stroke:rgb(100%,69.019608%,0%);stroke-opacity:1;stroke-miterlimit:10;" d="M 787 0 L 164 1000 "/>
<path style="fill:none;stroke-width:0.0124055;stroke-linecap:butt;stroke-linejoin:miter;stroke:rgb(100%,69.019608%,0%);stroke-opacity:1;stroke-miterlimit:10;" d="M 458 387 L 397 268 "/>
<path style=" stroke:none;fill-rule:nonzero;fill:rgb(100%,69.019608%,0%);fill-opacity:0.243552;" d="M 990.296875 362 C 990.296875 405.242188 955.242188 440.296875 912 440.296875 C 868.757812 440.296875 833.703125 405.242188 833.703125 362 C 833.703125 318.757812 868.757812 283.703125 912 283.703125 C 955.242188 283.703125 990.296875 318.757812 990.296875 362 "/>
<path style="fill:none;stroke-width:3.492995;stroke-linecap:butt;stroke-linejoin:miter;stroke:rgb(99.607843%,38.039216%,0%);stroke-opacity:0.0932663;stroke-miterlimit:10;" d="M 849.09375 424 C 849.09375 437.308594 838.308594 448.09375 825 448.09375 C 811.691406 448.09375 800.90625 437.308594 800.90625 424 C 800.90625 410.691406 811.691406 399.90625 825 399.90625 C 838.308594 399.90625 849.09375 410.691406 849.09375 424 "/>
<path style="fill:none;stroke-width:1.480028;stroke-linecap:butt;stroke-linejoin:miter;stroke:rgb(100%,69.019608%,0%);stroke-opacity:1;stroke-miterlimit:10;" d="M 969 527 L 969 800 "/>
</g>
</svg>
