<?xml version="1.0" encoding="UTF-8"?>
<svg xmlns="http://www.w3.org/2000/svg" xmlns:xlink="http://www.w3.org/1999/xlink" width="1000pt" height="1000pt" viewBox="0 0 1000 1000" version="1.1">
<g id="surface1">
<rect x="0" y="0" width="1000" height="1000" style="fill:rgb(100%,100%,100%);fill-opacity:1;stroke:none;"/>
<path style="fill:none;stroke-width:9.776743;stroke-linecap:butt;stroke-linejoin:miter;stroke:rgb(99.607843%,38.039216%,0%);stroke-opacity:0.467681;stroke-miterlimit:10;" d="M 325 643 L 6 211 "/>
<path style="fill:none;stroke-width:5.140427;stroke-linecap:butt;stroke-linejoin:miter;stroke:rgb(39.215686%,56.078431%,100%);stroke-opacity:0.901888;stroke-miterlimit:10;" d="M 869.140625 431 C 869.140625 447.09375 856.09375 460.140625 840 460.140625 C 823.90625 460.140625 810.859375 447.09375 810.859375 431 C 810.859375 414.90625 823.90625 401.859375 840 401.859375 C 856.09375 401.859375 869.140625 414.90625 869.140625 431 "/>
<path style="fill:none;stroke-width:3.250444;stroke-linecap:butt;stroke-linejoin:miter;stroke:rgb(47.058824%,36.862745%,94.117647%);stroke-opacity:0.284739;stroke-miterlimit:10;" d="M 120 232 L 344 556 "/>
<path style="fill:none;stroke-width:4.101213;stroke-linecap:butt;stroke-linejoin:miter;stroke:rgb(39.215686%,56.078431%,100%);stroke-opacity:1;stroke-miterlimit:10;" d="M 555 0 L 341 1000 "/>
<path style="fill:none;stroke-width:1.800385;stroke-linecap:butt;stroke-linejoin:miter;stroke:rgb(100%,69.019608%,0%);stroke-opacity:1;stroke-miterlimit:10;" d="M 337 0 L 512 1000 "/>
<path style=" stroke:none;fill-rule:nonzero;fill:rgb(39.215686%,56.078431%,100%);fill-opacity:0.0673233;" d="M 425.882812 54 C 425.882812 201.949219 305.949219 321.882812 158 321.882812 C 10.050781 321.882812 -109.882812 201.949219 -109.882812 54 C -109.882812 -93.949219 10.050781 -213.882812 158 -213.882812 C 305.949219 -213.882812 425.882812 -93.949219 425.882812 54 "/>
<path style="fill:none;stroke-width:4.061365;stroke-linecap:butt;stroke-linejoin:miter;stroke:rgb(99.607843%,38.039216%,0%);stroke-opacity:1;stroke-miterlimit:10;" d="M 357.679688 738 C 357.679688 903.507812 223.507812 1037.679688 58 1037.679688 C -107.507812 1037.679688 -241.679688 903.507812 -241.679688 738 C -241.679688 572.492188 -107.507812 438.320312 58 438.320312 C 223.507812 438.320312 357.679688 572.492188 357.679688 738 "/>
<path style="fill:none;stroke-width:6.415439;stroke-linecap:butt;stroke-linejoin:miter;stroke:rgb(86.27451%,14.901961%,49.803922%);stroke-opacity:1;stroke-miterlimit:10;" d="M 148 981 C 148 981 762 571 405 845 "/>
<path style=" stroke:none;fill-rule:nonzero;fill:rgb(47.058824%,36.862745%,94.117647%);fill-opacity:0.159937;" d="M 567.960938 819 C 567.960938 953.734375 458.734375 1062.960938 324 1062.960938 C 189.265625 1062.960938 80.039062 953.734375 80.039062 819 C 80.039062 684.265625 189.265625 575.039062 324 575.039062 C 458.734375 575.039062 567.960938 684.265625 567.960938 819 "/>
<path style="fill:none;stroke-width:2.893639;stroke-linecap:butt;stroke-linejoin:miter;stroke:rgb(99.607843%,38.039216%,0%);stroke-opacity:1;stroke-miterlimit:10;" d="M 850 0 L 816 1000 "/>
<path style="fill:none;stroke-width:5.634347;stroke-linecap:butt;stroke-linejoin:miter;stroke:rgb(39.215686%,56.078431%,100%);stroke-opacity:1;stroke-miterlimit:10;" d="M 322.429688 137.089844 L 648.382812 36.277344 L 212.652344 63.78125 L 322.429688 137.089844 "/>
<path style="fill:none;stroke-width:2.447924;stroke-linecap:butt;stroke-linejoin:miter;stroke:rgb(47.058824%,36.862745%,94.117647%);stroke-opacity:1;stroke-miterlimit:10;" d="M 817 0 C 817 0 626 1000 989 243 "/>
<path style="fill:none;stroke-width:1.885879;stroke-linecap:butt;stroke-linejoin:miter;stroke:rgb(47.058824%,36.862745%,94.117647%);stroke-opacity:0.551513;stroke-miterlimit:10;" d="M 892 0 L 92 1000 "/>
<path style=" stroke:none;fill-rule:nonzero;fill:rgb(47.058824%,36.862745%,94.117647%);fill-opacity:1;" d="M 751.851562 425.054688 L 456.011719 594.582031 L 397.746094 10.203125 L 751.851562 425.054688 "/>
<path style=" stroke:none;fill-rule:nonzero;fill:rgb(39.215686%,56.078431%,100%);fill-opacity:1;" d="M 1016.171875 1151.800781 L 338.730469 418.058594 L 1142.039062 305.046875 L 1016.171875 1151.800781 "/>
<path style="fill:none;stroke-width:0.958368;stroke-linecap:butt;stroke-linejoin:miter;stroke:rgb(39.215686%,56.078431%,100%);stroke-opacity:1;stroke-miterlimit:10;" d="M 0 547 L 1000 229 "/>
<path style="fill:none;stroke-width:4.847473;stroke-linecap:butt;stroke-linejoin:miter;stroke:rgb(86.27451%,14.901961%,49.803922%);stroke-opacity:0.616877;stroke-miterlimit:10;" d="M 225 0 L 765 1000 "/>
<path style="fill:none;stroke-width:1.414866;stroke-linecap:butt;stroke-linejoin:miter;stroke:rgb(100%,69.019608%,0%);stroke-opacity:0.57129;stroke-miterlimit:10;" d="M 151 689 L 770 603 "/>
<path style="fill:none;stroke-width:2.840819;stroke-linecap:butt;stroke-linejoin:miter;stroke:rgb(99.607843%,38.039216%,0%);stroke-opacity:0.967779;stroke-miterlimit:10;" d="M 993 0 C 993 0 93 1000 260 616 "/>
<path style="fill:none;stroke-width:4.09577;stroke-linecap:butt;stroke-linejoin:miter;stroke:rgb(100%,69.019608%,0%);stroke-opacity:0.752256;stroke-miterlimit:10;" d="M 908 282 C 908 282 714 811 411 769 "/>
</g>
</svg>
