<?xml version="1.0" encoding="UTF-8"?>
<svg xmlns="http://www.w3.org/2000/svg" xmlns:xlink="http://www.w3.org/1999/xlink" width="1000pt" height="1000pt" viewBox="0 0 1000 1000" version="1.1">
<g id="surface1">
<rect x="0" y="0" width="1000" height="1000" style="fill:rgb(100%,100%,100%);fill-opacity:1;stroke:none;"/>
<path style="fill:none;stroke-width:0.326444;stroke-linecap:butt;stroke-linejoin:miter;stroke:rgb(86.27451%,14.901961%,49.803922%);stroke-opacity:1;stroke-miterlimit:10;" d="M 452 165 C 452 165 188 703 197 134 "/>
<path style="fill:none;stroke-width:6.56032;stroke-linecap:butt;stroke-linejoin:miter;stroke:rgb(86.27451%,14.901961%,49.803922%);stroke-opacity:1;stroke-miterlimit:10;" d="M 0 598 L 1000 981 "/>
<path style="fill:none;stroke-width:8.94369;stroke-linecap:butt;stroke-linejoin:miter;stroke:rgb(99.607843%,38.039216%,0%);stroke-opacity:0.404261;stroke-miterlimit:10;" d="M 0 148 C 0 148 533 408 564 1000 "/>
<path style=" stroke:none;fill-rule:nonzero;fill:rgb(39.215686%,56.078431%,100%);fill-opacity:0.477325;" d="M 198.535156 370.179688 L 1404.679688 1127.257812 L 195.539062 65.8125 L 198.535156 370.179688 "/>
<path style="fill:none;stroke-width:2.971641;stroke-linecap:butt;stroke-linejoin:miter;stroke:rgb(39.215686%,56.078431%,100%);stroke-opacity:0.287152;stroke-miterlimit:10;" d="M 1031.039062 144 C 1031.039062 178.261719 1003.261719 206.039062 969 206.039062 C 934.738281 206.039062 906.960938 178.261719 906.960938 144 C 906.960938 109.738281 934.738281 81.960938 969 81.960938 C 1003.261719 81.960938 1031.039062 109.738281 1031.039062 144 "/>
<path style="fill:none;stroke-width:2.781508;stroke-linecap:butt;stroke-linejoin:miter;stroke:rgb(86.27451%,14.901961%,49.803922%);stroke-opacity:1;stroke-miterlimit:10;" d="M 386 0 L 632 1000 "/>
<path style="fill:none;stroke-width:0.314811;stroke-linecap:butt;stroke-linejoin:miter;stroke:rgb(100%,69.019608%,0%);stroke-opacity:1;stroke-miterlimit:10;" d="M 746 0 L 731 1000 "/>
<path style="fill:none;stroke-width:9.833358;stroke-linecap:butt;stroke-linejoin:miter;stroke:rgb(86.27451%,14.901961%,49.803922%);stroke-opacity:1;stroke-miterlimit:10;" d="M 350.53125 451 C 350.53125 598.753906 230.753906 718.53125 83 718.53125 C -64.753906 718.53125 -184.53125 598.753906 -184.53125 451 C -184.53125 303.246094 -64.753906 183.46875 83 183.46875 C 230.753906 183.46875 350.53125 303.246094 350.53125 451 "/>
<path style="fill:none;stroke-width:9.545709;stroke-linecap:butt;stroke-linejoin:miter;stroke:rgb(86.27451%,14.901961%,49.803922%);stroke-opacity:1;stroke-miterlimit:10;" d="M 369.015625 173.761719 L 589.816406 8.238281 L 77.535156 1428.300781 L 369.015625 173.761719 "/>
<path style=" stroke:none;fill-rule:nonzero;fill:rgb(100%,69.019608%,0%);fill-opacity:1;" d="M 247.339844 913.796875 L 185.484375 904.757812 L 1214.863281 717.0625 L 247.339844 913.796875 "/>
<path style="fill:none;stroke-width:5.311825;stroke-linecap:butt;stroke-linejoin:miter;stroke:rgb(86.27451%,14.901961%,49.803922%);stroke-opacity:0.162595;stroke-miterlimit:10;" d="M 1168.929688 816 C 1168.929688 939.671875 1068.671875 1039.929688 945 1039.929688 C 821.328125 1039.929688 721.070312 939.671875 721.070312 816 C 721.070312 692.328125 821.328125 592.070312 945 592.070312 C 1068.671875 592.070312 1168.929688 692.328125 1168.929688 816 "/>
<path style=" stroke:none;fill-rule:nonzero;fill:rgb(39.215686%,56.078431%,100%);fill-opacity:1;" d="M 496.167969 84.335938 L 118.960938 178.367188 L 265.203125 1388.976562 L 496.167969 84.335938 "/>
<path style="fill:none;stroke-width:5.939204;stroke-linecap:butt;stroke-linejoin:miter;stroke:rgb(86.27451%,14.901961%,49.803922%);stroke-opacity:1;stroke-miterlimit:10;" d="M 318 0 L 355 1000 "/>
<path style="fill:none;stroke-width:7.572089;stroke-linecap:butt;stroke-linejoin:miter;stroke:rgb(39.215686%,56.078431%,100%);stroke-opacity:0.418908;stroke-miterlimit:10;" d="M 277 0 L 48 1000 "/>
<path style=" stroke:none;fill-rule:nonzero;fill:rgb(86.27451%,14.901961%,49.803922%);fill-opacity:0.9579;" d="M 853.773438 905 C 853.773438 1030.242188 752.242188 1131.773438 627 1131.773438 C 501.757812 1131.773438 400.226562 1030.242188 400.226562 905 C 400.226562 779.757812 501.757812 678.226562 627 678.226562 C 752.242188 678.226562 853.773438 779.757812 853.773438 905 "/>
<path style="fill:none;stroke-width:4.933122;stroke-linecap:butt;stroke-linejoin:miter;stroke:rgb(47.058824%,36.862745%,94.117647%);stroke-opacity:1;stroke-miterlimit:10;" d="M 74.628906 49.277344 L 661.933594 257.226562 L 590.957031 145.667969 L 74.628906 49.277344 "/>
</g>
</svg>
