<?xml version="1.0" encoding="UTF-8"?>
<svg xmlns="http://www.w3.org/2000/svg" xmlns:xlink="http://www.w3.org/1999/xlink" width="1000pt" height="1000pt" viewBox="0 0 1000 1000" version="1.1">
<g id="surface1">
<rect x="0" y="0" width="1000" height="1000" style="fill:rgb(100%,100%,100%);fill-opacity:1;stroke:none;"/>
<path style=" stroke:none;fill-rule:nonzero;fill:rgb(47.058824%,36.862745%,94.117647%);fill-opacity:0.538627;" d="M 843.976562 771 C 843.976562 788.109375 830.109375 801.976562 813 801.976562 C 795.890625 801.976562 782.023438 788.109375 782.023438 771 C 782.023438 753.890625 795.890625 740.023438 813 740.023438 C 830.109375 740.023438 843.976562 753.890625 843.976562 771 "/>
<path style="fill:none;stroke-width:7.904343;stroke-linecap:butt;stroke-linejoin:miter;stroke:rgb(47.058824%,36.862745%,94.117647%);stroke-opacity:1;stroke-miterlimit:10;" d="M 651 496 L 733 6 "/>
<path style="fill:none;stroke-width:9.57406;stroke-linecap:butt;stroke-linejoin:miter;stroke:rgb(100%,69.019608%,0%);stroke-opacity:1;stroke-miterlimit:10;" d="M 148 0 L 714 1000 "/>
<path style=" stroke:none;fill-rule:nonzero;fill:rgb(99.607843%,38.039216%,0%);fill-opacity:0.705923;" d="M 1220.839844 674 C 1220.839844 802.59375 1116.59375 906.839844 988 906.839844 C 859.40625 906.839844 755.160156 802.59375 755.160156 674 C 755.160156 545.40625 859.40625 441.160156 988 441.160156 C 1116.59375 441.160156 1220.839844 545.40625 1220.839844 674 "/>
<path style="fill:none;stroke-width:9.899711;stroke-linecap:butt;stroke-linejoin:miter;stroke:rgb(100%,69.019608%,0%);stroke-opacity:0.411808;stroke-miterlimit:10;" d="M 1007.109375 733 C 1007.109375 817.558594 938.558594 886.109375 854 886.109375 C 769.441406 886.109375 700.890625 817.558594 700.890625 733 C 700.890625 648.441406 769.441406 579.890625 854 579.890625 C 938.558594 579.890625 1007.109375 648.441406 1007.109375 733 "/>
<path style="fill:none;stroke-width:0.535247;stroke-linecap:butt;stroke-linejoin:miter;stroke:rgb(99.607843%,38.039216%,0%);stroke-opacity:1;stroke-miterlimit:10;" d="M 480 669 C 480 669 987 307 492 912 "/>
<path style="fill:none;stroke-width:0.198637;stroke-linecap:butt;stroke-linejoin:miter;stroke:rgb(39.215686%,56.078431%,100%);stroke-opacity:1;stroke-miterlimit:10;" d="M 1467.097656 88.472656 L 28.152344 333.191406 L 453.113281 552.65625 L 1467.097656 88.472656 "/>
<path style=" stroke:none;fill-rule:nonzero;fill:rgb(99.607843%,38.039216%,0%);fill-opacity:1;" d="M 1066.285156 546 C 1066.285156 701.347656 940.347656 827.285156 785 827.285156 C 629.652344 827.285156 503.714844 701.347656 503.714844 546 C 503.714844 390.652344 629.652344 264.714844 785 264.714844 C 940.347656 264.714844 1066.285156 390.652344 1066.285156 546 "/>
<path style="fill:none;stroke-width:7.118819;stroke-linecap:butt;stroke-linejoin:miter;stroke:rgb(99.607843%,38.039216%,0%);stroke-opacity:1;stroke-miterlimit:10;" d="M 192 565 C 192 565 463 759 326 787 "/>
<path style="fill:none;stroke-width:8.912641;stroke-linecap:butt;stroke-linejoin:miter;stroke:rgb(99.607843%,38.039216%,0%);stroke-opacity:1;stroke-miterlimit:10;" d="M 444 627 L 776 980 "/>
<path style="fill:none;stroke-width:4.594394;stroke-linecap:butt;stroke-linejoin:miter;stroke:rgb(86.27451%,14.901961%,49.803922%);stroke-opacity:0.51746;stroke-miterlimit:10;" d="M 0 532 L 1000 803 "/>
<path style="fill:none;stroke-width:2.22269;stroke-linecap:butt;stroke-linejoin:miter;stroke:rgb(100%,69.019608%,0%);stroke-opacity:0.922496;stroke-miterlimit:10;" d="M 415 0 L 906 1000 "/>
<path style="fill:none;stroke-width:7.79287;stroke-linecap:butt;stroke-linejoin:miter;stroke:rgb(86.27451%,14.901961%,49.803922%);stroke-opacity:1;stroke-miterlimit:10;" d="M 187 867 L 857 110 "/>
<path style="fill:none;stroke-width:6.780924;stroke-linecap:butt;stroke-linejoin:miter;stroke:rgb(47.058824%,36.862745%,94.117647%);stroke-opacity:1;stroke-miterlimit:10;" d="M 532.367188 129 C 532.367188 199.894531 474.894531 257.367188 404 257.367188 C 333.105469 257.367188 275.632812 199.894531 275.632812 129 C 275.632812 58.105469 333.105469 0.632812 404 0.632812 C 474.894531 0.632812 532.367188 58.105469 532.367188 129 "/>
<path style="fill:none;stroke-width:6.975262;stroke-linecap:butt;stroke-linejoin:miter;stroke:rgb(39.215686%,56.078431%,100%);stroke-opacity:1;stroke-miterlimit:10;" d="M 0 62 L 1000 81 "/>
<path style="fill:none;stroke-width:2.234507;stroke-linecap:butt;stroke-linejoin:miter;stroke:rgb(86.27451%,14.901961%,49.803922%);stroke-opacity:1;stroke-miterlimit:10;" d="M 227 999 L 202 466 "/>
<path style="fill:none;stroke-width:8.303596;stroke-linecap:butt;stroke-linejoin:miter;stroke:rgb(39.215686%,56.078431%,100%);stroke-opacity:1;stroke-miterlimit:10;" d="M 0 964 C 0 964 722 374 461 1000 "/>
<path style="fill:none;stroke-width:9.686682;stroke-linecap:butt;stroke-linejoin:miter;stroke:rgb(47.058824%,36.862745%,94.117647%);stroke-opacity:0.656769;stroke-miterlimit:10;" d="M 428.996094 767 C 428.996094 819.464844 386.464844 861.996094 334 861.996094 C 281.535156 861.996094 239.003906 819.464844 239.003906 767 C 239.003906 714.535156 281.535156 672.003906 334 672.003906 C 386.464844 672.003906 428.996094 714.535156 428.996094 767 "/>
<path style="fill:none;stroke-width:8.537866;stroke-linecap:butt;stroke-linejoin:miter;stroke:rgb(100%,69.019608%,0%);stroke-opacity:1;stroke-miterlimit:10;" d="M 538 0 L 159 1000 "/>
<path style=" stroke:none;fill-rule:nonzero;fill:rgb(86.27451%,14.901961%,49.803922%);fill-opacity:0.920408;" d="M 191.738281 509 C 191.738281 613.789062 106.789062 698.738281 2 698.738281 C -102.789062 698.738281 -187.738281 613.789062 -187.738281 509 C -187.738281 404.210938 -102.789062 319.261719 2 319.261719 C 106.789062 319.261719 191.738281 404.210938 191.738281 509 "/>
</g>
</svg>
