<?xml version="1.0" encoding="UTF-8"?>
<svg xmlns="http://www.w3.org/2000/svg" xmlns:xlink="http://www.w3.org/1999/xlink" width="1000pt" height="1000pt" viewBox="0 0 1000 1000" version="1.1">
<g id="surface1">
<rect x="0" y="0" width="1000" height="1000" style="fill:rgb(39.215686%,56.078431%,100%);fill-opacity:1;stroke:none;"/>
<path style="fill:none;stroke-width:4.767557;stroke-linecap:butt;stroke-linejoin:miter;stroke:rgb(86.27451%,14.901961%,49.803922%);stroke-opacity:1;stroke-miterlimit:10;" d="M 806 609 C 806 609 49 439 758 727 "/>
<path style="fill:none;stroke-width:7.676384;stroke-linecap:butt;stroke-linejoin:miter;stroke:rgb(86.27451%,14.901961%,49.803922%);stroke-opacity:1;stroke-miterlimit:10;" d="M 66 574 L 452 132 "/>
<path style="fill:none;stroke-width:1.577978;stroke-linecap:butt;stroke-linejoin:miter;stroke:rgb(86.27451%,14.901961%,49.803922%);stroke-opacity:1;stroke-miterlimit:10;" d="M 852 690 C 852 690 218 136 123 309 "/>
<path style=" stroke:none;fill-rule:nonzero;fill:rgb(86.27451%,14.901961%,49.803922%);fill-opacity:0.870664;" d="M 400.476562 900.828125 L 1238.332031 1578.496094 L 118.835938 67.574219 L 400.476562 900.828125 "/>
<path style="fill:none;stroke-width:2.269305;stroke-linecap:butt;stroke-linejoin:miter;stroke:rgb(39.215686%,56.078431%,100%);stroke-opacity:1;stroke-miterlimit:10;" d="M 920 0 L 803 1000 "/>
<path style="fill:none;stroke-width:2.78704;stroke-linecap:butt;stroke-linejoin:miter;stroke:rgb(99.607843%,38.039216%,0%);stroke-opacity:0.469171;stroke-miterlimit:10;" d="M 458 0 C 458 0 31 756 705 305 "/>
<path style=" stroke:none;fill-rule:nonzero;fill:rgb(47.058824%,36.862745%,94.117647%);fill-opacity:0.646889;" d="M 467.082031 29.195312 L 269.058594 538.066406 L 943.496094 719.261719 L 467.082031 29.195312 "/>
<path style="fill:none;stroke-width:9.555238;stroke-linecap:butt;stroke-linejoin:miter;stroke:rgb(47.058824%,36.862745%,94.117647%);stroke-opacity:0.124545;stroke-miterlimit:10;" d="M 529 0 L 807 1000 "/>
<path style="fill:none;stroke-width:0.553729;stroke-linecap:butt;stroke-linejoin:miter;stroke:rgb(100%,69.019608%,0%);stroke-opacity:0.432324;stroke-miterlimit:10;" d="M 975 445 C 975 445 775 345 469 364 "/>
<path style="fill:none;stroke-width:2.367751;stroke-linecap:butt;stroke-linejoin:miter;stroke:rgb(100%,69.019608%,0%);stroke-opacity:1;stroke-miterlimit:10;" d="M 523 0 L 551 1000 "/>
<path style="fill:none;stroke-width:1.525554;stroke-linecap:butt;stroke-linejoin:miter;stroke:rgb(47.058824%,36.862745%,94.117647%);stroke-opacity:1;stroke-miterlimit:10;" d="M 133 0 L 95 1000 "/>
<path style="fill:none;stroke-width:1.145853;stroke-linecap:butt;stroke-linejoin:miter;stroke:rgb(86.27451%,14.901961%,49.803922%);stroke-opacity:0.627609;stroke-miterlimit:10;" d="M 501 0 L 10 1000 "/>
<path style="fill:none;stroke-width:8.179273;stroke-linecap:butt;stroke-linejoin:miter;stroke:rgb(86.27451%,14.901961%,49.803922%);stroke-opacity:0.320253;stroke-miterlimit:10;" d="M 755.636719 602 C 755.636719 654.820312 712.820312 697.636719 660 697.636719 C 607.179688 697.636719 564.363281 654.820312 564.363281 602 C 564.363281 549.179688 607.179688 506.363281 660 506.363281 C 712.820312 506.363281 755.636719 549.179688 755.636719 602 "/>
<path style="fill:none;stroke-width:3.344056;stroke-linecap:butt;stroke-linejoin:miter;stroke:rgb(100%,69.019608%,0%);stroke-opacity:1;stroke-miterlimit:10;" d="M 1035.230469 221 C 1035.230469 340.421875 938.421875 437.230469 819 437.230469 C 699.578125 437.230469 602.769531 340.421875 602.769531 221 C 602.769531 101.578125 699.578125 4.769531 819 4.769531 C 938.421875 4.769531 1035.230469 101.578125 1035.230469 221 "/>
<path style="fill:none;stroke-width:6.404429;stroke-linecap:butt;stroke-linejoin:miter;stroke:rgb(47.058824%,36.862745%,94.117647%);stroke-opacity:0.413601;stroke-miterlimit:10;" d="M 392 0 L 669 1000 "/>
<path style="fill:none;stroke-width:0.928724;stroke-linecap:butt;stroke-linejoin:miter;stroke:rgb(47.058824%,36.862745%,94.117647%);stroke-opacity:1;stroke-miterlimit:10;" d="M 224 0 L 608 1000 "/>
</g>
</svg>
