<?xml version="1.0" encoding="UTF-8"?>
<svg xmlns="http://www.w3.org/2000/svg" xmlns:xlink="http://www.w3.org/1999/xlink" width="1000pt" height="1000pt" viewBox="0 0 1000 1000" version="1.1">
<g id="surface1">
<rect x="0" y="0" width="1000" height="1000" style="fill:rgb(0%,0%,0%);fill-opacity:1;stroke:none;"/>
<path style="fill:none;stroke-width:4.346438;stroke-linecap:butt;stroke-linejoin:miter;stroke:rgb(47.058824%,36.862745%,94.117647%);stroke-opacity:1;stroke-miterlimit:10;" d="M 850.046875 16 C 850.046875 112.125 772.125 190.046875 676 190.046875 C 579.875 190.046875 501.953125 112.125 501.953125 16 C 501.953125 -80.125 579.875 -158.046875 676 -158.046875 C 772.125 -158.046875 850.046875 -80.125 850.046875 16 "/>
<path style="fill:none;stroke-width:2.454396;stroke-linecap:butt;stroke-linejoin:miter;stroke:rgb(100%,69.019608%,0%);stroke-opacity:1;stroke-miterlimit:10;" d="M 980 871 C 980 871 795 891 221 252 "/>
<path style="fill:none;stroke-width:9.096502;stroke-linecap:butt;stroke-linejoin:miter;stroke:rgb(47.058824%,36.862745%,94.117647%);stroke-opacity:0.0325348;stroke-miterlimit:10;" d="M 22.484375 668 C 22.484375 676 16 682.484375 8 682.484375 C 0 682.484375 -6.484375 676 -6.484375 668 C -6.484375 660 0 653.515625 8 653.515625 C 16 653.515625 22.484375 660 22.484375 668 "/>
<path style=" stroke:none;fill-rule:nonzero;fill:rgb(47.058824%,36.862745%,94.117647%);fill-opacity:0.404146;" d="M 8.03125 626.902344 L 119.578125 324.730469 L 269.484375 95.652344 L 8.03125 626.902344 "/>
<path style="fill:none;stroke-width:9.02641;stroke-linecap:butt;stroke-linejoin:miter;stroke:rgb(86.27451%,14.901961%,49.803922%);stroke-opacity:0.239361;stroke-miterlimit:10;" d="M 479 923 L 454 245 "/>
<path style="fill:none;stroke-width:3.847851;stroke-linecap:butt;stroke-linejoin:miter;stroke:rgb(39.215686%,56.078431%,100%);stroke-opacity:0.538635;stroke-miterlimit:10;" d="M 286.652344 937.820312 L 175.957031 53.683594 L 38.390625 1459.648438 L 286.652344 937.820312 "/>
<path style="fill:none;stroke-width:4.121992;stroke-linecap:butt;stroke-linejoin:miter;stroke:rgb(99.607843%,38.039216%,0%);stroke-opacity:0.206943;stroke-miterlimit:10;" d="M 0 982 L 1000 823 "/>
<path style="fill:none;stroke-width:3.750907;stroke-linecap:butt;stroke-linejoin:miter;stroke:rgb(99.607843%,38.039216%,0%);stroke-opacity:0.421117;stroke-miterlimit:10;" d="M 362 0 L 573 1000 "/>
<path style="fill:none;stroke-width:3.556226;stroke-linecap:butt;stroke-linejoin:miter;stroke:rgb(47.058824%,36.862745%,94.117647%);stroke-opacity:0.182929;stroke-miterlimit:10;" d="M 190.300781 24.445312 L 733.136719 499.410156 L 33.1875 1690.539062 L 190.300781 24.445312 "/>
<path style=" stroke:none;fill-rule:nonzero;fill:rgb(47.058824%,36.862745%,94.117647%);fill-opacity:1;" d="M 953.628906 721 C 953.628906 836.773438 859.773438 930.628906 744 930.628906 C 628.226562 930.628906 534.371094 836.773438 534.371094 721 C 534.371094 605.226562 628.226562 511.371094 744 511.371094 C 859.773438 511.371094 953.628906 605.226562 953.628906 721 "/>
<path style="fill:none;stroke-width:4.562493;stroke-linecap:butt;stroke-linejoin:miter;stroke:rgb(47.058824%,36.862745%,94.117647%);stroke-opacity:0.772817;stroke-miterlimit:10;" d="M 789 0 L 767 1000 "/>
<path style=" stroke:none;fill-rule:nonzero;fill:rgb(100%,69.019608%,0%);fill-opacity:0.120766;" d="M 1020.625 71 C 1020.625 224.328125 896.328125 348.625 743 348.625 C 589.671875 348.625 465.375 224.328125 465.375 71 C 465.375 -82.328125 589.671875 -206.625 743 -206.625 C 896.328125 -206.625 1020.625 -82.328125 1020.625 71 "/>
<path style="fill:none;stroke-width:3.31365;stroke-linecap:butt;stroke-linejoin:miter;stroke:rgb(99.607843%,38.039216%,0%);stroke-opacity:1;stroke-miterlimit:10;" d="M 292.5 623 C 292.5 692.863281 235.863281 749.5 166 749.5 C 96.136719 749.5 39.5 692.863281 39.5 623 C 39.5 553.136719 96.136719 496.5 166 496.5 C 235.863281 496.5 292.5 553.136719 292.5 623 "/>
<path style="fill:none;stroke-width:6.021632;stroke-linecap:butt;stroke-linejoin:miter;stroke:rgb(100%,69.019608%,0%);stroke-opacity:1;stroke-miterlimit:10;" d="M 489.339844 341.160156 L 849.503906 257.679688 L 0.933594 1107.480469 L 489.339844 341.160156 "/>
<path style="fill:none;stroke-width:1.554352;stroke-linecap:butt;stroke-linejoin:miter;stroke:rgb(47.058824%,36.862745%,94.117647%);stroke-opacity:0.213112;stroke-miterlimit:10;" d="M 0 938 L 1000 450 "/>
<path style="fill:none;stroke-width:1.389183;stroke-linecap:butt;stroke-linejoin:miter;stroke:rgb(86.27451%,14.901961%,49.803922%);stroke-opacity:0.467358;stroke-miterlimit:10;" d="M 391 725 C 391 725 590 277 119 648 "/>
<path style=" stroke:none;fill-rule:nonzero;fill:rgb(47.058824%,36.862745%,94.117647%);fill-opacity:0.0965208;" d="M 422.074219 334 C 422.074219 335.429688 419.925781 335.429688 419.925781 334 C 419.925781 332.570312 422.074219 332.570312 422.074219 334 "/>
</g>
</svg>
