<?xml version="1.0" encoding="UTF-8"?>
<svg xmlns="http://www.w3.org/2000/svg" xmlns:xlink="http://www.w3.org/1999/xlink" width="1000pt" height="1000pt" viewBox="0 0 1000 1000" version="1.1">
<g id="surface1">
<rect x="0" y="0" width="1000" height="1000" style="fill:rgb(100%,100%,100%);fill-opacity:1;stroke:none;"/>
<path style="fill:none;stroke-width:4.037442;stroke-linecap:butt;stroke-linejoin:miter;stroke:rgb(100%,69.019608%,0%);stroke-opacity:0.54038;stroke-miterlimit:10;" d="M 0 262 L 1000 973 "/>
<path style="fill:none;stroke-width:7.992309;stroke-linecap:butt;stroke-linejoin:miter;stroke:rgb(39.215686%,56.078431%,100%);stroke-opacity:1;stroke-miterlimit:10;" d="M 164.984375 591 C 164.984375 602.589844 155.589844 611.984375 144 611.984375 C 132.410156 611.984375 123.015625 602.589844 123.015625 591 C 123.015625 579.410156 132.410156 570.015625 144 570.015625 C 155.589844 570.015625 164.984375 579.410156 164.984375 591 "/>
<path style="fill:none;stroke-width:4.856036;stroke-linecap:butt;stroke-linejoin:miter;stroke:rgb(86.27451%,14.901961%,49.803922%);stroke-opacity:1;stroke-miterlimit:10;" d="M 732 603 C 732 603 564 98 444 440 "/>
<path style="fill:none;stroke-width:9.088106;stroke-linecap:butt;stroke-linejoin:miter;stroke:rgb(47.058824%,36.862745%,94.117647%);stroke-opacity:1;stroke-miterlimit:10;" d="M 693 0 L 638 1000 "/>
<path style="fill:none;stroke-width:5.838516;stroke-linecap:butt;stroke-linejoin:miter;stroke:rgb(99.607843%,38.039216%,0%);stroke-opacity:0.185584;stroke-miterlimit:10;" d="M 449 797 C 449 797 645 920 772 350 "/>
<path style="fill:none;stroke-width:5.669967;stroke-linecap:butt;stroke-linejoin:miter;stroke:rgb(47.058824%,36.862745%,94.117647%);stroke-opacity:1;stroke-miterlimit:10;" d="M 62 51 C 62 51 271 838 960 350 "/>
<path style="fill:none;stroke-width:0.0465525;stroke-linecap:butt;stroke-linejoin:miter;stroke:rgb(47.058824%,36.862745%,94.117647%);stroke-opacity:0.425455;stroke-miterlimit:10;" d="M 405 812 C 405 812 536 18 584 673 "/>
<path style="fill:none;stroke-width:8.262271;stroke-linecap:butt;stroke-linejoin:miter;stroke:rgb(86.27451%,14.901961%,49.803922%);stroke-opacity:0.754334;stroke-miterlimit:10;" d="M 794 549 C 794 549 497 119 142 780 "/>
<path style="fill:none;stroke-width:4.400553;stroke-linecap:butt;stroke-linejoin:miter;stroke:rgb(99.607843%,38.039216%,0%);stroke-opacity:1;stroke-miterlimit:10;" d="M 205 723 C 205 723 181 38 825 541 "/>
<path style="fill:none;stroke-width:5.335415;stroke-linecap:butt;stroke-linejoin:miter;stroke:rgb(47.058824%,36.862745%,94.117647%);stroke-opacity:0.67619;stroke-miterlimit:10;" d="M 815.476562 380 C 815.476562 433.28125 772.28125 476.476562 719 476.476562 C 665.71875 476.476562 622.523438 433.28125 622.523438 380 C 622.523438 326.71875 665.71875 283.523438 719 283.523438 C 772.28125 283.523438 815.476562 326.71875 815.476562 380 "/>
<path style=" stroke:none;fill-rule:nonzero;fill:rgb(99.607843%,38.039216%,0%);fill-opacity:0.818264;" d="M 848.375 109 C 848.375 133.507812 828.507812 153.375 804 153.375 C 779.492188 153.375 759.625 133.507812 759.625 109 C 759.625 84.492188 779.492188 64.625 804 64.625 C 828.507812 64.625 848.375 84.492188 848.375 109 "/>
<path style="fill:none;stroke-width:1.210203;stroke-linecap:butt;stroke-linejoin:miter;stroke:rgb(86.27451%,14.901961%,49.803922%);stroke-opacity:1;stroke-miterlimit:10;" d="M 912.167969 48 C 912.167969 77.914062 887.914062 102.167969 858 102.167969 C 828.085938 102.167969 803.832031 77.914062 803.832031 48 C 803.832031 18.085938 828.085938 -6.167969 858 -6.167969 C 887.914062 -6.167969 912.167969 18.085938 912.167969 48 "/>
<path style="fill:none;stroke-width:2.396217;stroke-linecap:butt;stroke-linejoin:miter;stroke:rgb(100%,69.019608%,0%);stroke-opacity:1;stroke-miterlimit:10;" d="M 910 0 L 511 1000 "/>
<path style="fill:none;stroke-width:4.056364;stroke-linecap:butt;stroke-linejoin:miter;stroke:rgb(39.215686%,56.078431%,100%);stroke-opacity:1;stroke-miterlimit:10;" d="M 873 0 L 297 1000 "/>
<path style=" stroke:none;fill-rule:nonzero;fill:rgb(99.607843%,38.039216%,0%);fill-opacity:0.596871;" d="M 483.039062 214 C 483.039062 264.28125 442.28125 305.039062 392 305.039062 C 341.71875 305.039062 300.960938 264.28125 300.960938 214 C 300.960938 163.71875 341.71875 122.960938 392 122.960938 C 442.28125 122.960938 483.039062 163.71875 483.039062 214 "/>
<path style="fill:none;stroke-width:0.211427;stroke-linecap:butt;stroke-linejoin:miter;stroke:rgb(100%,69.019608%,0%);stroke-opacity:0.132552;stroke-miterlimit:10;" d="M 965.261719 353 C 965.261719 367.503906 953.503906 379.261719 939 379.261719 C 924.496094 379.261719 912.738281 367.503906 912.738281 353 C 912.738281 338.496094 924.496094 326.738281 939 326.738281 C 953.503906 326.738281 965.261719 338.496094 965.261719 353 "/>
<path style="fill:none;stroke-width:7.130043;stroke-linecap:butt;stroke-linejoin:miter;stroke:rgb(39.215686%,56.078431%,100%);stroke-opacity:1;stroke-miterlimit:10;" d="M 0 331 L 1000 141 "/>
<path style="fill:none;stroke-width:5.645016;stroke-linecap:butt;stroke-linejoin:miter;stroke:rgb(39.215686%,56.078431%,100%);stroke-opacity:0.436154;stroke-miterlimit:10;" d="M 0 334 L 1000 401 "/>
<path style="fill:none;stroke-width:7.586509;stroke-linecap:butt;stroke-linejoin:miter;stroke:rgb(99.607843%,38.039216%,0%);stroke-opacity:0.083009;stroke-miterlimit:10;" d="M 626 379 C 626 379 879 839 323 186 "/>
<path style=" stroke:none;fill-rule:nonzero;fill:rgb(99.607843%,38.039216%,0%);fill-opacity:0.679125;" d="M 537.34375 364 C 537.34375 424.941406 487.941406 474.34375 427 474.34375 C 366.058594 474.34375 316.65625 424.941406 316.65625 364 C 316.65625 303.058594 366.058594 253.65625 427 253.65625 C 487.941406 253.65625 537.34375 303.058594 537.34375 364 "/>
<path style="fill:none;stroke-width:5.478502;stroke-linecap:butt;stroke-linejoin:miter;stroke:rgb(47.058824%,36.862745%,94.117647%);stroke-opacity:0.630465;stroke-miterlimit:10;" d="M 508 584 C 508 584 176 292 626 34 "/>
<path style="fill:none;stroke-width:5.728933;stroke-linecap:butt;stroke-linejoin:miter;stroke:rgb(47.058824%,36.862745%,94.117647%);stroke-opacity:0.683672;stroke-miterlimit:10;" d="M 232 72 C 232 72 73 397 894 320 "/>
<path style=" stroke:none;fill-rule:nonzero;fill:rgb(99.607843%,38.039216%,0%);fill-opacity:0.358881;" d="M 826.539062 919 C 826.539062 922.058594 824.058594 924.539062 821 924.539062 C 817.941406 924.539062 815.460938 922.058594 815.460938 919 C 815.460938 915.941406 817.941406 913.460938 821 913.460938 C 824.058594 913.460938 826.539062 915.941406 826.539062 919 "/>
<path style=" stroke:none;fill-rule:nonzero;fill:rgb(100%,69.019608%,0%);fill-opacity:1;" d="M 347.226562 330 C 347.226562 369.890625 314.890625 402.226562 275 402.226562 C 235.109375 402.226562 202.773438 369.890625 202.773438 330 C 202.773438 290.109375 235.109375 257.773438 275 257.773438 C 314.890625 257.773438 347.226562 290.109375 347.226562 330 "/>
<path style="fill:none;stroke-width:8.610673;stroke-linecap:butt;stroke-linejoin:miter;stroke:rgb(99.607843%,38.039216%,0%);stroke-opacity:0.594692;stroke-miterlimit:10;" d="M 993 63 L 423 115 "/>
<path style=" stroke:none;fill-rule:nonzero;fill:rgb(86.27451%,14.901961%,49.803922%);fill-opacity:0.63704;" d="M 39.542969 933 C 39.542969 947.105469 28.105469 958.542969 14 958.542969 C -0.105469 958.542969 -11.542969 947.105469 -11.542969 933 C -11.542969 918.894531 -0.105469 907.457031 14 907.457031 C 28.105469 907.457031 39.542969 918.894531 39.542969 933 "/>
<path style="fill:none;stroke-width:7.000092;stroke-linecap:butt;stroke-linejoin:miter;stroke:rgb(100%,69.019608%,0%);stroke-opacity:1;stroke-miterlimit:10;" d="M 910 252 C 910 252 628 169 270 128 "/>
<path style="fill:none;stroke-width:6.882171;stroke-linecap:butt;stroke-linejoin:miter;stroke:rgb(99.607843%,38.039216%,0%);stroke-opacity:0.381744;stroke-miterlimit:10;" d="M 296 603 C 296 603 988 299 870 54 "/>
<path style="fill:none;stroke-width:3.564542;stroke-linecap:butt;stroke-linejoin:miter;stroke:rgb(39.215686%,56.078431%,100%);stroke-opacity:0.474364;stroke-miterlimit:10;" d="M 597 329 L 681 634 "/>
<path style="fill:none;stroke-width:3.573092;stroke-linecap:butt;stroke-linejoin:miter;stroke:rgb(39.215686%,56.078431%,100%);stroke-opacity:0.220498;stroke-miterlimit:10;" d="M 547.15625 815 C 547.15625 853.195312 516.195312 884.15625 478 884.15625 C 439.804688 884.15625 408.84375 853.195312 408.84375 815 C 408.84375 776.804688 439.804688 745.84375 478 745.84375 C 516.195312 745.84375 547.15625 776.804688 547.15625 815 "/>
<path style="fill:none;stroke-width:1.154842;stroke-linecap:butt;stroke-linejoin:miter;stroke:rgb(100%,69.019608%,0%);stroke-opacity:1;stroke-miterlimit:10;" d="M 229 211 L 511 400 "/>
<path style="fill:none;stroke-width:1.370533;stroke-linecap:butt;stroke-linejoin:miter;stroke:rgb(86.27451%,14.901961%,49.803922%);stroke-opacity:1;stroke-miterlimit:10;" d="M 779 875 C 779 875 738 782 293 373 "/>
<path style="fill:none;stroke-width:3.281615;stroke-linecap:butt;stroke-linejoin:miter;stroke:rgb(47.058824%,36.862745%,94.117647%);stroke-opacity:1;stroke-miterlimit:10;" d="M 798 605 L 562 353 "/>
<path style="fill:none;stroke-width:3.444052;stroke-linecap:butt;stroke-linejoin:miter;stroke:rgb(100%,69.019608%,0%);stroke-opacity:1;stroke-miterlimit:10;" d="M 954 0 L 36 1000 "/>
<path style="fill:none;stroke-width:5.761081;stroke-linecap:butt;stroke-linejoin:miter;stroke:rgb(99.607843%,38.039216%,0%);stroke-opacity:0.576454;stroke-miterlimit:10;" d="M 171.898438 495 C 171.898438 541.335938 134.335938 578.898438 88 578.898438 C 41.664062 578.898438 4.101562 541.335938 4.101562 495 C 4.101562 448.664062 41.664062 411.101562 88 411.101562 C 134.335938 411.101562 171.898438 448.664062 171.898438 495 "/>
<path style="fill:none;stroke-width:2.308772;stroke-linecap:butt;stroke-linejoin:miter;stroke:rgb(99.607843%,38.039216%,0%);stroke-opacity:1;stroke-miterlimit:10;" d="M 0 322 L 1000 435 "/>
<path style="fill:none;stroke-width:7.196147;stroke-linecap:butt;stroke-linejoin:miter;stroke:rgb(100%,69.019608%,0%);stroke-opacity:1;stroke-miterlimit:10;" d="M 0 390 L 1000 925 "/>
<path style="fill:none;stroke-width:1.935008;stroke-linecap:butt;stroke-linejoin:miter;stroke:rgb(86.27451%,14.901961%,49.803922%);stroke-opacity:1;stroke-miterlimit:10;" d="M 13 539 L 990 358 "/>
<path style="fill:none;stroke-width:0.543586;stroke-linecap:butt;stroke-linejoin:miter;stroke:rgb(86.27451%,14.901961%,49.803922%);stroke-opacity:1;stroke-miterlimit:10;" d="M 507 0 L 409 1000 "/>
<path style="fill:none;stroke-width:1.462366;stroke-linecap:butt;stroke-linejoin:miter;stroke:rgb(86.27451%,14.901961%,49.803922%);stroke-opacity:1;stroke-miterlimit:10;" d="M 760 0 L 807 1000 "/>
<path style="fill:none;stroke-width:1.225269;stroke-linecap:butt;stroke-linejoin:miter;stroke:rgb(99.607843%,38.039216%,0%);stroke-opacity:1;stroke-miterlimit:10;" d="M 202 164 L 634 751 "/>
<path style="fill:none;stroke-width:8.398276;stroke-linecap:butt;stroke-linejoin:miter;stroke:rgb(99.607843%,38.039216%,0%);stroke-opacity:0.630745;stroke-miterlimit:10;" d="M 323 154 C 323 154 112 873 528 19 "/>
<path style="fill:none;stroke-width:2.038278;stroke-linecap:butt;stroke-linejoin:miter;stroke:rgb(47.058824%,36.862745%,94.117647%);stroke-opacity:1;stroke-miterlimit:10;" d="M 478 847 C 478 847 954 831 610 948 "/>
<path style="fill:none;stroke-width:6.750691;stroke-linecap:butt;stroke-linejoin:miter;stroke:rgb(99.607843%,38.039216%,0%);stroke-opacity:0.399818;stroke-miterlimit:10;" d="M 985 0 L 241 1000 "/>
<path style="fill:none;stroke-width:7.87961;stroke-linecap:butt;stroke-linejoin:miter;stroke:rgb(39.215686%,56.078431%,100%);stroke-opacity:0.294891;stroke-miterlimit:10;" d="M 674 68 C 674 68 393 730 120 31 "/>
<path style="fill:none;stroke-width:7.202336;stroke-linecap:butt;stroke-linejoin:miter;stroke:rgb(100%,69.019608%,0%);stroke-opacity:0.831957;stroke-miterlimit:10;" d="M 190 421 L 92 686 "/>
<path style="fill:none;stroke-width:7.066308;stroke-linecap:butt;stroke-linejoin:miter;stroke:rgb(100%,69.019608%,0%);stroke-opacity:0.138831;stroke-miterlimit:10;" d="M 783 933 L 151 567 "/>
</g>
</svg>
