<?xml version="1.0" encoding="UTF-8"?>
<svg xmlns="http://www.w3.org/2000/svg" xmlns:xlink="http://www.w3.org/1999/xlink" width="1000pt" height="1000pt" viewBox="0 0 1000 1000" version="1.1">
<g id="surface1">
<rect x="0" y="0" width="1000" height="1000" style="fill:rgb(100%,100%,100%);fill-opacity:1;stroke:none;"/>
<path style="fill:none;stroke-width:6.451508;stroke-linecap:butt;stroke-linejoin:miter;stroke:rgb(99.607843%,38.039216%,0%);stroke-opacity:1;stroke-miterlimit:10;" d="M 357 796 C 357 796 848 136 62 547 "/>
<path style="fill:none;stroke-width:7.505205;stroke-linecap:butt;stroke-linejoin:miter;stroke:rgb(47.058824%,36.862745%,94.117647%);stroke-opacity:1;stroke-miterlimit:10;" d="M 705 666 C 705 666 560 250 559 830 "/>
<path style="fill:none;stroke-width:1.477836;stroke-linecap:butt;stroke-linejoin:miter;stroke:rgb(39.215686%,56.078431%,100%);stroke-opacity:1;stroke-miterlimit:10;" d="M 524 862 C 524 862 86 458 193 592 "/>
<path style="fill:none;stroke-width:2.59643;stroke-linecap:butt;stroke-linejoin:miter;stroke:rgb(100%,69.019608%,0%);stroke-opacity:0.695223;stroke-miterlimit:10;" d="M 344 0 L 800 1000 "/>
<path style="fill:none;stroke-width:0.6239;stroke-linecap:butt;stroke-linejoin:miter;stroke:rgb(47.058824%,36.862745%,94.117647%);stroke-opacity:0.0247856;stroke-miterlimit:10;" d="M 544 85 C 544 85 417 189 499 163 "/>
<path style="fill:none;stroke-width:2.697957;stroke-linecap:butt;stroke-linejoin:miter;stroke:rgb(100%,69.019608%,0%);stroke-opacity:1;stroke-miterlimit:10;" d="M 50 987 L 23 889 "/>
<path style="fill:none;stroke-width:1.334114;stroke-linecap:butt;stroke-linejoin:miter;stroke:rgb(100%,69.019608%,0%);stroke-opacity:0.217181;stroke-miterlimit:10;" d="M 0 841 L 1000 314 "/>
<path style=" stroke:none;fill-rule:nonzero;fill:rgb(47.058824%,36.862745%,94.117647%);fill-opacity:0.18685;" d="M 1070.984375 295 C 1070.984375 376.179688 1005.179688 441.984375 924 441.984375 C 842.820312 441.984375 777.015625 376.179688 777.015625 295 C 777.015625 213.820312 842.820312 148.015625 924 148.015625 C 1005.179688 148.015625 1070.984375 213.820312 1070.984375 295 "/>
<path style=" stroke:none;fill-rule:nonzero;fill:rgb(99.607843%,38.039216%,0%);fill-opacity:1;" d="M 525.601562 983 C 525.601562 1037.457031 481.457031 1081.601562 427 1081.601562 C 372.542969 1081.601562 328.398438 1037.457031 328.398438 983 C 328.398438 928.542969 372.542969 884.398438 427 884.398438 C 481.457031 884.398438 525.601562 928.542969 525.601562 983 "/>
<path style=" stroke:none;fill-rule:nonzero;fill:rgb(99.607843%,38.039216%,0%);fill-opacity:1;" d="M 541.824219 618 C 541.824219 714.550781 463.550781 792.824219 367 792.824219 C 270.449219 792.824219 192.175781 714.550781 192.175781 618 C 192.175781 521.449219 270.449219 443.175781 367 443.175781 C 463.550781 443.175781 541.824219 521.449219 541.824219 618 "/>
<path style="fill:none;stroke-width:5.018745;stroke-linecap:butt;stroke-linejoin:miter;stroke:rgb(39.215686%,56.078431%,100%);stroke-opacity:0.204142;stroke-miterlimit:10;" d="M 844 45 C 844 45 756 457 257 420 "/>
<path style="fill:none;stroke-width:4.318269;stroke-linecap:butt;stroke-linejoin:miter;stroke:rgb(100%,69.019608%,0%);stroke-opacity:0.252749;stroke-miterlimit:10;" d="M 775 629 C 775 629 311 907 253 765 "/>
<path style="fill:none;stroke-width:9.655921;stroke-linecap:butt;stroke-linejoin:miter;stroke:rgb(39.215686%,56.078431%,100%);stroke-opacity:1;stroke-miterlimit:10;" d="M 2 991 L 495 401 "/>
<path style="fill:none;stroke-width:1.189823;stroke-linecap:butt;stroke-linejoin:miter;stroke:rgb(100%,69.019608%,0%);stroke-opacity:0.774988;stroke-miterlimit:10;" d="M 0 558 L 1000 638 "/>
<path style="fill:none;stroke-width:9.924968;stroke-linecap:butt;stroke-linejoin:miter;stroke:rgb(86.27451%,14.901961%,49.803922%);stroke-opacity:1;stroke-miterlimit:10;" d="M 0 229 L 1000 815 "/>
<path style="fill:none;stroke-width:4.737052;stroke-linecap:butt;stroke-linejoin:miter;stroke:rgb(99.607843%,38.039216%,0%);stroke-opacity:1;stroke-miterlimit:10;" d="M 818 311 C 818 311 509 630 947 10 "/>
<path style=" stroke:none;fill-rule:nonzero;fill:rgb(39.215686%,56.078431%,100%);fill-opacity:0.559075;" d="M 474.582031 139 C 474.582031 244.253906 389.253906 329.582031 284 329.582031 C 178.746094 329.582031 93.417969 244.253906 93.417969 139 C 93.417969 33.746094 178.746094 -51.582031 284 -51.582031 C 389.253906 -51.582031 474.582031 33.746094 474.582031 139 "/>
<path style="fill:none;stroke-width:4.595678;stroke-linecap:butt;stroke-linejoin:miter;stroke:rgb(100%,69.019608%,0%);stroke-opacity:0.405708;stroke-miterlimit:10;" d="M 0 612 L 1000 31 "/>
<path style="fill:none;stroke-width:2.240352;stroke-linecap:butt;stroke-linejoin:miter;stroke:rgb(47.058824%,36.862745%,94.117647%);stroke-opacity:0.49807;stroke-miterlimit:10;" d="M 432.113281 450 C 432.113281 515.234375 379.234375 568.113281 314 568.113281 C 248.765625 568.113281 195.886719 515.234375 195.886719 450 C 195.886719 384.765625 248.765625 331.886719 314 331.886719 C 379.234375 331.886719 432.113281 384.765625 432.113281 450 "/>
<path style="fill:none;stroke-width:7.731851;stroke-linecap:butt;stroke-linejoin:miter;stroke:rgb(99.607843%,38.039216%,0%);stroke-opacity:1;stroke-miterlimit:10;" d="M 216 548 L 454 383 "/>
<path style="fill:none;stroke-width:0.381319;stroke-linecap:butt;stroke-linejoin:miter;stroke:rgb(47.058824%,36.862745%,94.117647%);stroke-opacity:0.0452988;stroke-miterlimit:10;" d="M 115 319 L 713 866 "/>
<path style=" stroke:none;fill-rule:nonzero;fill:rgb(100%,69.019608%,0%);fill-opacity:0.437082;" d="M 204.433594 831 C 204.433594 883.15625 162.15625 925.433594 110 925.433594 C 57.84375 925.433594 15.566406 883.15625 15.566406 831 C 15.566406 778.84375 57.84375 736.566406 110 736.566406 C 162.15625 736.566406 204.433594 778.84375 204.433594 831 "/>
<path style="fill:none;stroke-width:6.462356;stroke-linecap:butt;stroke-linejoin:miter;stroke:rgb(86.27451%,14.901961%,49.803922%);stroke-opacity:1;stroke-miterlimit:10;" d="M 717 995 L 924 200 "/>
<path style="fill:none;stroke-width:2.779509;stroke-linecap:butt;stroke-linejoin:miter;stroke:rgb(86.27451%,14.901961%,49.803922%);stroke-opacity:1;stroke-miterlimit:10;" d="M 710.144531 164 C 710.144531 172.917969 702.917969 180.144531 694 180.144531 C 685.082031 180.144531 677.855469 172.917969 677.855469 164 C 677.855469 155.082031 685.082031 147.855469 694 147.855469 C 702.917969 147.855469 710.144531 155.082031 710.144531 164 "/>
<path style=" stroke:none;fill-rule:nonzero;fill:rgb(39.215686%,56.078431%,100%);fill-opacity:1;" d="M 446.304688 851 C 446.304688 945.609375 369.609375 1022.304688 275 1022.304688 C 180.390625 1022.304688 103.695312 945.609375 103.695312 851 C 103.695312 756.390625 180.390625 679.695312 275 679.695312 C 369.609375 679.695312 446.304688 756.390625 446.304688 851 "/>
<path style="fill:none;stroke-width:0.378413;stroke-linecap:butt;stroke-linejoin:miter;stroke:rgb(100%,69.019608%,0%);stroke-opacity:0.707462;stroke-miterlimit:10;" d="M 0 855 L 1000 528 "/>
<path style="fill:none;stroke-width:6.490184;stroke-linecap:butt;stroke-linejoin:miter;stroke:rgb(47.058824%,36.862745%,94.117647%);stroke-opacity:0.476103;stroke-miterlimit:10;" d="M 653 0 L 312 1000 "/>
<path style="fill:none;stroke-width:4.510145;stroke-linecap:butt;stroke-linejoin:miter;stroke:rgb(86.27451%,14.901961%,49.803922%);stroke-opacity:0.678541;stroke-miterlimit:10;" d="M 323.757812 283 C 323.757812 355.214844 265.214844 413.757812 193 413.757812 C 120.785156 413.757812 62.242188 355.214844 62.242188 283 C 62.242188 210.785156 120.785156 152.242188 193 152.242188 C 265.214844 152.242188 323.757812 210.785156 323.757812 283 "/>
<path style="fill:none;stroke-width:3.823761;stroke-linecap:butt;stroke-linejoin:miter;stroke:rgb(100%,69.019608%,0%);stroke-opacity:1;stroke-miterlimit:10;" d="M 782 0 L 70 1000 "/>
<path style=" stroke:none;fill-rule:nonzero;fill:rgb(47.058824%,36.862745%,94.117647%);fill-opacity:1;" d="M 185.535156 331 C 185.535156 420.765625 112.765625 493.535156 23 493.535156 C -66.765625 493.535156 -139.535156 420.765625 -139.535156 331 C -139.535156 241.234375 -66.765625 168.464844 23 168.464844 C 112.765625 168.464844 185.535156 241.234375 185.535156 331 "/>
<path style="fill:none;stroke-width:4.738155;stroke-linecap:butt;stroke-linejoin:miter;stroke:rgb(99.607843%,38.039216%,0%);stroke-opacity:1;stroke-miterlimit:10;" d="M 148 0 L 429 1000 "/>
<path style="fill:none;stroke-width:3.852427;stroke-linecap:butt;stroke-linejoin:miter;stroke:rgb(47.058824%,36.862745%,94.117647%);stroke-opacity:0.9957;stroke-miterlimit:10;" d="M 968.488281 129 C 968.488281 152.464844 949.464844 171.488281 926 171.488281 C 902.535156 171.488281 883.511719 152.464844 883.511719 129 C 883.511719 105.535156 902.535156 86.511719 926 86.511719 C 949.464844 86.511719 968.488281 105.535156 968.488281 129 "/>
<path style="fill:none;stroke-width:6.848333;stroke-linecap:butt;stroke-linejoin:miter;stroke:rgb(39.215686%,56.078431%,100%);stroke-opacity:1;stroke-miterlimit:10;" d="M 486 201 L 658 964 "/>
<path style="fill:none;stroke-width:0.433654;stroke-linecap:butt;stroke-linejoin:miter;stroke:rgb(39.215686%,56.078431%,100%);stroke-opacity:0.784404;stroke-miterlimit:10;" d="M 0 809 L 1000 539 "/>
<path style="fill:none;stroke-width:1.147281;stroke-linecap:butt;stroke-linejoin:miter;stroke:rgb(100%,69.019608%,0%);stroke-opacity:1;stroke-miterlimit:10;" d="M 895 0 L 396 1000 "/>
<path style="fill:none;stroke-width:9.805076;stroke-linecap:butt;stroke-linejoin:miter;stroke:rgb(47.058824%,36.862745%,94.117647%);stroke-opacity:0.0976214;stroke-miterlimit:10;" d="M 0 363 L 1000 251 "/>
<path style="fill:none;stroke-width:9.331859;stroke-linecap:butt;stroke-linejoin:miter;stroke:rgb(47.058824%,36.862745%,94.117647%);stroke-opacity:0.236211;stroke-miterlimit:10;" d="M 3 817 C 3 817 732 135 241 169 "/>
<path style=" stroke:none;fill-rule:nonzero;fill:rgb(99.607843%,38.039216%,0%);fill-opacity:1;" d="M 705.894531 660 C 705.894531 716.828125 659.828125 762.894531 603 762.894531 C 546.171875 762.894531 500.105469 716.828125 500.105469 660 C 500.105469 603.171875 546.171875 557.105469 603 557.105469 C 659.828125 557.105469 705.894531 603.171875 705.894531 660 "/>
<path style="fill:none;stroke-width:8.320476;stroke-linecap:butt;stroke-linejoin:miter;stroke:rgb(39.215686%,56.078431%,100%);stroke-opacity:0.0941364;stroke-miterlimit:10;" d="M 84 0 L 60 1000 "/>
<path style="fill:none;stroke-width:4.09344;stroke-linecap:butt;stroke-linejoin:miter;stroke:rgb(99.607843%,38.039216%,0%);stroke-opacity:1;stroke-miterlimit:10;" d="M 458 466 C 458 466 392 269 921 225 "/>
</g>
</svg>
