<?xml version="1.0" encoding="UTF-8"?>
<svg xmlns="http://www.w3.org/2000/svg" xmlns:xlink="http://www.w3.org/1999/xlink" width="1000pt" height="1000pt" viewBox="0 0 1000 1000" version="1.1">
<g id="surface1">
<rect x="0" y="0" width="1000" height="1000" style="fill:rgb(100%,100%,100%);fill-opacity:1;stroke:none;"/>
<path style="fill:none;stroke-width:8.524011;stroke-linecap:butt;stroke-linejoin:miter;stroke:rgb(86.27451%,14.901961%,49.803922%);stroke-opacity:0.0362355;stroke-miterlimit:10;" d="M 153 0 L 809 1000 "/>
<path style="fill:none;stroke-width:0.942932;stroke-linecap:butt;stroke-linejoin:miter;stroke:rgb(99.607843%,38.039216%,0%);stroke-opacity:1;stroke-miterlimit:10;" d="M 711 346 L 684 0 "/>
<path style="fill:none;stroke-width:1.068808;stroke-linecap:butt;stroke-linejoin:miter;stroke:rgb(39.215686%,56.078431%,100%);stroke-opacity:0.684218;stroke-miterlimit:10;" d="M 641.160156 269 C 641.160156 338.675781 584.675781 395.160156 515 395.160156 C 445.324219 395.160156 388.839844 338.675781 388.839844 269 C 388.839844 199.324219 445.324219 142.839844 515 142.839844 C 584.675781 142.839844 641.160156 199.324219 641.160156 269 "/>
<path style="fill:none;stroke-width:4.5487;stroke-linecap:butt;stroke-linejoin:miter;stroke:rgb(86.27451%,14.901961%,49.803922%);stroke-opacity:0.896398;stroke-miterlimit:10;" d="M 809 765 C 809 765 481 111 803 929 "/>
<path style=" stroke:none;fill-rule:nonzero;fill:rgb(86.27451%,14.901961%,49.803922%);fill-opacity:0.778647;" d="M 138.691406 27 C 138.691406 97.523438 81.523438 154.691406 11 154.691406 C -59.523438 154.691406 -116.691406 97.523438 -116.691406 27 C -116.691406 -43.523438 -59.523438 -100.691406 11 -100.691406 C 81.523438 -100.691406 138.691406 -43.523438 138.691406 27 "/>
<path style="fill:none;stroke-width:3.797155;stroke-linecap:butt;stroke-linejoin:miter;stroke:rgb(99.607843%,38.039216%,0%);stroke-opacity:0.329888;stroke-miterlimit:10;" d="M 137 300 L 561 330 "/>
<path style="fill:none;stroke-width:5.335559;stroke-linecap:butt;stroke-linejoin:miter;stroke:rgb(39.215686%,56.078431%,100%);stroke-opacity:0.497643;stroke-miterlimit:10;" d="M 370 0 L 473 1000 "/>
<path style="fill:none;stroke-width:2.092165;stroke-linecap:butt;stroke-linejoin:miter;stroke:rgb(47.058824%,36.862745%,94.117647%);stroke-opacity:1;stroke-miterlimit:10;" d="M 420 0 L 683 1000 "/>
<path style="fill:none;stroke-width:6.22937;stroke-linecap:butt;stroke-linejoin:miter;stroke:rgb(100%,69.019608%,0%);stroke-opacity:1;stroke-miterlimit:10;" d="M 823 17 L 642 585 "/>
<path style="fill:none;stroke-width:5.731684;stroke-linecap:butt;stroke-linejoin:miter;stroke:rgb(100%,69.019608%,0%);stroke-opacity:0.233717;stroke-miterlimit:10;" d="M 0 23 L 1000 379 "/>
<path style=" stroke:none;fill-rule:nonzero;fill:rgb(39.215686%,56.078431%,100%);fill-opacity:1;" d="M 502.992188 108 C 502.992188 124.566406 489.566406 137.992188 473 137.992188 C 456.433594 137.992188 443.007812 124.566406 443.007812 108 C 443.007812 91.433594 456.433594 78.007812 473 78.007812 C 489.566406 78.007812 502.992188 91.433594 502.992188 108 "/>
<path style="fill:none;stroke-width:0.576724;stroke-linecap:butt;stroke-linejoin:miter;stroke:rgb(86.27451%,14.901961%,49.803922%);stroke-opacity:0.757341;stroke-miterlimit:10;" d="M 752 0 L 263 1000 "/>
<path style="fill:none;stroke-width:2.759986;stroke-linecap:butt;stroke-linejoin:miter;stroke:rgb(86.27451%,14.901961%,49.803922%);stroke-opacity:0.749023;stroke-miterlimit:10;" d="M 897 305 C 897 305 530 613 488 570 "/>
<path style=" stroke:none;fill-rule:nonzero;fill:rgb(86.27451%,14.901961%,49.803922%);fill-opacity:1;" d="M 177.308594 554 C 177.308594 602.21875 138.21875 641.308594 90 641.308594 C 41.78125 641.308594 2.691406 602.21875 2.691406 554 C 2.691406 505.78125 41.78125 466.691406 90 466.691406 C 138.21875 466.691406 177.308594 505.78125 177.308594 554 "/>
<path style=" stroke:none;fill-rule:nonzero;fill:rgb(86.27451%,14.901961%,49.803922%);fill-opacity:0.98592;" d="M 941.808594 924 C 941.808594 936.597656 931.597656 946.808594 919 946.808594 C 906.402344 946.808594 896.191406 936.597656 896.191406 924 C 896.191406 911.402344 906.402344 901.191406 919 901.191406 C 931.597656 901.191406 941.808594 911.402344 941.808594 924 "/>
<path style="fill:none;stroke-width:2.269643;stroke-linecap:butt;stroke-linejoin:miter;stroke:rgb(47.058824%,36.862745%,94.117647%);stroke-opacity:0.034492;stroke-miterlimit:10;" d="M 0 631 L 1000 741 "/>
<path style="fill:none;stroke-width:5.257087;stroke-linecap:butt;stroke-linejoin:miter;stroke:rgb(99.607843%,38.039216%,0%);stroke-opacity:0.274362;stroke-miterlimit:10;" d="M 309 0 L 662 1000 "/>
<path style="fill:none;stroke-width:5.305346;stroke-linecap:butt;stroke-linejoin:miter;stroke:rgb(39.215686%,56.078431%,100%);stroke-opacity:1;stroke-miterlimit:10;" d="M 678 663 L 263 544 "/>
<path style="fill:none;stroke-width:1.677197;stroke-linecap:butt;stroke-linejoin:miter;stroke:rgb(47.058824%,36.862745%,94.117647%);stroke-opacity:0.701407;stroke-miterlimit:10;" d="M 820 883 L 67 630 "/>
<path style="fill:none;stroke-width:9.255128;stroke-linecap:butt;stroke-linejoin:miter;stroke:rgb(100%,69.019608%,0%);stroke-opacity:1;stroke-miterlimit:10;" d="M 733 984 L 143 205 "/>
</g>
</svg>
