<?xml version="1.0" encoding="UTF-8"?>
<svg xmlns="http://www.w3.org/2000/svg" xmlns:xlink="http://www.w3.org/1999/xlink" width="1000pt" height="1000pt" viewBox="0 0 1000 1000" version="1.1">
<g id="surface1">
<rect x="0" y="0" width="1000" height="1000" style="fill:rgb(100%,100%,100%);fill-opacity:1;stroke:none;"/>
<path style=" stroke:none;fill-rule:nonzero;fill:rgb(86.27451%,14.901961%,49.803922%);fill-opacity:1;" d="M 337.617188 374 C 337.617188 386.488281 327.488281 396.617188 315 396.617188 C 302.511719 396.617188 292.382812 386.488281 292.382812 374 C 292.382812 361.511719 302.511719 351.382812 315 351.382812 C 327.488281 351.382812 337.617188 361.511719 337.617188 374 "/>
<path style=" stroke:none;fill-rule:nonzero;fill:rgb(99.607843%,38.039216%,0%);fill-opacity:1;" d="M 1018.949219 831 C 1018.949219 849.195312 1004.195312 863.949219 986 863.949219 C 967.804688 863.949219 953.050781 849.195312 953.050781 831 C 953.050781 812.804688 967.804688 798.050781 986 798.050781 C 1004.195312 798.050781 1018.949219 812.804688 1018.949219 831 "/>
<path style="fill:none;stroke-width:5.210695;stroke-linecap:butt;stroke-linejoin:miter;stroke:rgb(99.607843%,38.039216%,0%);stroke-opacity:1;stroke-miterlimit:10;" d="M 0 901 L 1000 8 "/>
<path style="fill:none;stroke-width:8.676853;stroke-linecap:butt;stroke-linejoin:miter;stroke:rgb(86.27451%,14.901961%,49.803922%);stroke-opacity:1;stroke-miterlimit:10;" d="M 684 876 L 589 668 "/>
<path style="fill:none;stroke-width:7.726271;stroke-linecap:butt;stroke-linejoin:miter;stroke:rgb(86.27451%,14.901961%,49.803922%);stroke-opacity:1;stroke-miterlimit:10;" d="M 205 878 C 205 878 487 965 600 660 "/>
<path style="fill:none;stroke-width:6.683199;stroke-linecap:butt;stroke-linejoin:miter;stroke:rgb(100%,69.019608%,0%);stroke-opacity:0.615123;stroke-miterlimit:10;" d="M 0 270 L 1000 959 "/>
<path style="fill:none;stroke-width:7.364514;stroke-linecap:butt;stroke-linejoin:miter;stroke:rgb(39.215686%,56.078431%,100%);stroke-opacity:1;stroke-miterlimit:10;" d="M 0 396 L 1000 913 "/>
<path style="fill:none;stroke-width:3.533446;stroke-linecap:butt;stroke-linejoin:miter;stroke:rgb(86.27451%,14.901961%,49.803922%);stroke-opacity:0.328158;stroke-miterlimit:10;" d="M 592 0 L 457 1000 "/>
<path style="fill:none;stroke-width:7.715867;stroke-linecap:butt;stroke-linejoin:miter;stroke:rgb(86.27451%,14.901961%,49.803922%);stroke-opacity:0.802856;stroke-miterlimit:10;" d="M 0 595 L 1000 428 "/>
<path style="fill:none;stroke-width:8.590635;stroke-linecap:butt;stroke-linejoin:miter;stroke:rgb(39.215686%,56.078431%,100%);stroke-opacity:1;stroke-miterlimit:10;" d="M 562 0 L 255 1000 "/>
<path style="fill:none;stroke-width:0.578158;stroke-linecap:butt;stroke-linejoin:miter;stroke:rgb(86.27451%,14.901961%,49.803922%);stroke-opacity:0.67755;stroke-miterlimit:10;" d="M 199 0 L 667 1000 "/>
<path style="fill:none;stroke-width:7.694446;stroke-linecap:butt;stroke-linejoin:miter;stroke:rgb(86.27451%,14.901961%,49.803922%);stroke-opacity:1;stroke-miterlimit:10;" d="M 565 684 C 565 684 336 248 910 14 "/>
<path style="fill:none;stroke-width:9.228995;stroke-linecap:butt;stroke-linejoin:miter;stroke:rgb(47.058824%,36.862745%,94.117647%);stroke-opacity:1;stroke-miterlimit:10;" d="M 241 457 L 604 935 "/>
<path style="fill:none;stroke-width:3.344598;stroke-linecap:butt;stroke-linejoin:miter;stroke:rgb(100%,69.019608%,0%);stroke-opacity:1;stroke-miterlimit:10;" d="M 0 578 L 1000 241 "/>
<path style="fill:none;stroke-width:0.338124;stroke-linecap:butt;stroke-linejoin:miter;stroke:rgb(99.607843%,38.039216%,0%);stroke-opacity:0.960964;stroke-miterlimit:10;" d="M 160 588 C 160 588 555 596 72 819 "/>
<path style="fill:none;stroke-width:5.751706;stroke-linecap:butt;stroke-linejoin:miter;stroke:rgb(47.058824%,36.862745%,94.117647%);stroke-opacity:0.344868;stroke-miterlimit:10;" d="M 329.46875 102 C 329.46875 138.15625 300.15625 167.46875 264 167.46875 C 227.84375 167.46875 198.53125 138.15625 198.53125 102 C 198.53125 65.84375 227.84375 36.53125 264 36.53125 C 300.15625 36.53125 329.46875 65.84375 329.46875 102 "/>
<path style=" stroke:none;fill-rule:nonzero;fill:rgb(39.215686%,56.078431%,100%);fill-opacity:1;" d="M 1050.179688 212 C 1050.179688 247.445312 1021.445312 276.179688 986 276.179688 C 950.554688 276.179688 921.820312 247.445312 921.820312 212 C 921.820312 176.554688 950.554688 147.820312 986 147.820312 C 1021.445312 147.820312 1050.179688 176.554688 1050.179688 212 "/>
<path style="fill:none;stroke-width:9.199802;stroke-linecap:butt;stroke-linejoin:miter;stroke:rgb(99.607843%,38.039216%,0%);stroke-opacity:0.255301;stroke-miterlimit:10;" d="M 838 0 L 549 1000 "/>
<path style="fill:none;stroke-width:5.890883;stroke-linecap:butt;stroke-linejoin:miter;stroke:rgb(100%,69.019608%,0%);stroke-opacity:1;stroke-miterlimit:10;" d="M 0 622 L 1000 715 "/>
<path style="fill:none;stroke-width:8.406692;stroke-linecap:butt;stroke-linejoin:miter;stroke:rgb(86.27451%,14.901961%,49.803922%);stroke-opacity:0.819654;stroke-miterlimit:10;" d="M 183 112 C 183 112 348 322 364 812 "/>
<path style="fill:none;stroke-width:1.968225;stroke-linecap:butt;stroke-linejoin:miter;stroke:rgb(39.215686%,56.078431%,100%);stroke-opacity:0.525786;stroke-miterlimit:10;" d="M 0 664 L 1000 606 "/>
<path style="fill:none;stroke-width:7.050974;stroke-linecap:butt;stroke-linejoin:miter;stroke:rgb(47.058824%,36.862745%,94.117647%);stroke-opacity:0.0195818;stroke-miterlimit:10;" d="M 483 882 L 864 932 "/>
<path style=" stroke:none;fill-rule:nonzero;fill:rgb(47.058824%,36.862745%,94.117647%);fill-opacity:0.303782;" d="M 919.632812 422 C 919.632812 525.628906 835.628906 609.632812 732 609.632812 C 628.371094 609.632812 544.367188 525.628906 544.367188 422 C 544.367188 318.371094 628.371094 234.367188 732 234.367188 C 835.628906 234.367188 919.632812 318.371094 919.632812 422 "/>
<path style="fill:none;stroke-width:6.256159;stroke-linecap:butt;stroke-linejoin:miter;stroke:rgb(100%,69.019608%,0%);stroke-opacity:1;stroke-miterlimit:10;" d="M 281 804 C 281 804 277 24 442 169 "/>
<path style="fill:none;stroke-width:6.778657;stroke-linecap:butt;stroke-linejoin:miter;stroke:rgb(47.058824%,36.862745%,94.117647%);stroke-opacity:0.235114;stroke-miterlimit:10;" d="M 747 40 C 747 40 947 133 692 982 "/>
<path style="fill:none;stroke-width:4.384751;stroke-linecap:butt;stroke-linejoin:miter;stroke:rgb(39.215686%,56.078431%,100%);stroke-opacity:0.621899;stroke-miterlimit:10;" d="M 375 746 C 375 746 311 431 801 704 "/>
<path style="fill:none;stroke-width:8.135163;stroke-linecap:butt;stroke-linejoin:miter;stroke:rgb(39.215686%,56.078431%,100%);stroke-opacity:1;stroke-miterlimit:10;" d="M 649 0 L 556 1000 "/>
<path style="fill:none;stroke-width:7.227205;stroke-linecap:butt;stroke-linejoin:miter;stroke:rgb(99.607843%,38.039216%,0%);stroke-opacity:0.225064;stroke-miterlimit:10;" d="M 284 0 L 511 1000 "/>
<path style="fill:none;stroke-width:0.287327;stroke-linecap:butt;stroke-linejoin:miter;stroke:rgb(99.607843%,38.039216%,0%);stroke-opacity:1;stroke-miterlimit:10;" d="M 0 589 L 1000 487 "/>
<path style="fill:none;stroke-width:1.990444;stroke-linecap:butt;stroke-linejoin:miter;stroke:rgb(47.058824%,36.862745%,94.117647%);stroke-opacity:0.202876;stroke-miterlimit:10;" d="M 519.160156 370 C 519.160156 440.230469 462.230469 497.160156 392 497.160156 C 321.769531 497.160156 264.839844 440.230469 264.839844 370 C 264.839844 299.769531 321.769531 242.839844 392 242.839844 C 462.230469 242.839844 519.160156 299.769531 519.160156 370 "/>
<path style="fill:none;stroke-width:4.231922;stroke-linecap:butt;stroke-linejoin:miter;stroke:rgb(39.215686%,56.078431%,100%);stroke-opacity:1;stroke-miterlimit:10;" d="M 0 119 L 1000 811 "/>
<path style="fill:none;stroke-width:0.124237;stroke-linecap:butt;stroke-linejoin:miter;stroke:rgb(100%,69.019608%,0%);stroke-opacity:0.47157;stroke-miterlimit:10;" d="M 574 293 C 574 293 250 361 543 170 "/>
<path style="fill:none;stroke-width:6.356704;stroke-linecap:butt;stroke-linejoin:miter;stroke:rgb(99.607843%,38.039216%,0%);stroke-opacity:0.461129;stroke-miterlimit:10;" d="M 137 672 L 872 339 "/>
<path style="fill:none;stroke-width:8.211521;stroke-linecap:butt;stroke-linejoin:miter;stroke:rgb(47.058824%,36.862745%,94.117647%);stroke-opacity:0.930306;stroke-miterlimit:10;" d="M 0 628 L 1000 454 "/>
<path style="fill:none;stroke-width:4.02693;stroke-linecap:butt;stroke-linejoin:miter;stroke:rgb(100%,69.019608%,0%);stroke-opacity:1;stroke-miterlimit:10;" d="M 466 0 L 805 1000 "/>
<path style="fill:none;stroke-width:7.634188;stroke-linecap:butt;stroke-linejoin:miter;stroke:rgb(47.058824%,36.862745%,94.117647%);stroke-opacity:1;stroke-miterlimit:10;" d="M 936 578 C 936 578 22 920 351 383 "/>
<path style="fill:none;stroke-width:6.319975;stroke-linecap:butt;stroke-linejoin:miter;stroke:rgb(99.607843%,38.039216%,0%);stroke-opacity:0.0155777;stroke-miterlimit:10;" d="M 438.136719 449 C 438.136719 454.046875 434.046875 458.136719 429 458.136719 C 423.953125 458.136719 419.863281 454.046875 419.863281 449 C 419.863281 443.953125 423.953125 439.863281 429 439.863281 C 434.046875 439.863281 438.136719 443.953125 438.136719 449 "/>
<path style="fill:none;stroke-width:6.832137;stroke-linecap:butt;stroke-linejoin:miter;stroke:rgb(86.27451%,14.901961%,49.803922%);stroke-opacity:0.156673;stroke-miterlimit:10;" d="M 1106.824219 980 C 1106.824219 1073.238281 1031.238281 1148.824219 938 1148.824219 C 844.761719 1148.824219 769.175781 1073.238281 769.175781 980 C 769.175781 886.761719 844.761719 811.175781 938 811.175781 C 1031.238281 811.175781 1106.824219 886.761719 1106.824219 980 "/>
<path style="fill:none;stroke-width:5.190534;stroke-linecap:butt;stroke-linejoin:miter;stroke:rgb(86.27451%,14.901961%,49.803922%);stroke-opacity:1;stroke-miterlimit:10;" d="M 0 836 L 1000 847 "/>
<path style="fill:none;stroke-width:1.804631;stroke-linecap:butt;stroke-linejoin:miter;stroke:rgb(47.058824%,36.862745%,94.117647%);stroke-opacity:1;stroke-miterlimit:10;" d="M 754 958 C 754 958 459 514 594 75 "/>
<path style=" stroke:none;fill-rule:nonzero;fill:rgb(100%,69.019608%,0%);fill-opacity:0.98392;" d="M 474.152344 636 C 474.152344 731.628906 396.628906 809.152344 301 809.152344 C 205.371094 809.152344 127.847656 731.628906 127.847656 636 C 127.847656 540.371094 205.371094 462.847656 301 462.847656 C 396.628906 462.847656 474.152344 540.371094 474.152344 636 "/>
<path style="fill:none;stroke-width:7.44747;stroke-linecap:butt;stroke-linejoin:miter;stroke:rgb(100%,69.019608%,0%);stroke-opacity:0.118162;stroke-miterlimit:10;" d="M 520 0 L 18 1000 "/>
<path style="fill:none;stroke-width:7.706667;stroke-linecap:butt;stroke-linejoin:miter;stroke:rgb(39.215686%,56.078431%,100%);stroke-opacity:1;stroke-miterlimit:10;" d="M 793 209 C 793 209 437 433 963 569 "/>
</g>
</svg>
