<?xml version="1.0" encoding="UTF-8"?>
<svg xmlns="http://www.w3.org/2000/svg" xmlns:xlink="http://www.w3.org/1999/xlink" width="1000pt" height="1000pt" viewBox="0 0 1000 1000" version="1.1">
<g id="surface1">
<rect x="0" y="0" width="1000" height="1000" style="fill:rgb(47.058824%,36.862745%,94.117647%);fill-opacity:1;stroke:none;"/>
<path style="fill:none;stroke-width:5.796123;stroke-linecap:butt;stroke-linejoin:miter;stroke:rgb(47.058824%,36.862745%,94.117647%);stroke-opacity:0.394709;stroke-miterlimit:10;" d="M 883.820312 760 C 883.820312 895.210938 774.210938 1004.820312 639 1004.820312 C 503.789062 1004.820312 394.179688 895.210938 394.179688 760 C 394.179688 624.789062 503.789062 515.179688 639 515.179688 C 774.210938 515.179688 883.820312 624.789062 883.820312 760 "/>
<path style="fill:none;stroke-width:6.965739;stroke-linecap:butt;stroke-linejoin:miter;stroke:rgb(100%,69.019608%,0%);stroke-opacity:1;stroke-miterlimit:10;" d="M 394 178 C 394 178 485 136 352 45 "/>
<path style="fill:none;stroke-width:0.308744;stroke-linecap:butt;stroke-linejoin:miter;stroke:rgb(99.607843%,38.039216%,0%);stroke-opacity:1;stroke-miterlimit:10;" d="M 10 387 L 617 672 "/>
<path style="fill:none;stroke-width:3.842184;stroke-linecap:butt;stroke-linejoin:miter;stroke:rgb(99.607843%,38.039216%,0%);stroke-opacity:0.441479;stroke-miterlimit:10;" d="M 1155.277344 215 C 1155.277344 314.566406 1074.566406 395.277344 975 395.277344 C 875.433594 395.277344 794.722656 314.566406 794.722656 215 C 794.722656 115.433594 875.433594 34.722656 975 34.722656 C 1074.566406 34.722656 1155.277344 115.433594 1155.277344 215 "/>
<path style="fill:none;stroke-width:2.426169;stroke-linecap:butt;stroke-linejoin:miter;stroke:rgb(39.215686%,56.078431%,100%);stroke-opacity:1;stroke-miterlimit:10;" d="M 0 503 L 1000 684 "/>
<path style="fill:none;stroke-width:1.407944;stroke-linecap:butt;stroke-linejoin:miter;stroke:rgb(86.27451%,14.901961%,49.803922%);stroke-opacity:1;stroke-miterlimit:10;" d="M 690 623 C 690 623 682 648 210 34 "/>
<path style="fill:none;stroke-width:2.976785;stroke-linecap:butt;stroke-linejoin:miter;stroke:rgb(86.27451%,14.901961%,49.803922%);stroke-opacity:0.942498;stroke-miterlimit:10;" d="M 1037.59375 809 C 1037.59375 878.917969 980.917969 935.59375 911 935.59375 C 841.082031 935.59375 784.40625 878.917969 784.40625 809 C 784.40625 739.082031 841.082031 682.40625 911 682.40625 C 980.917969 682.40625 1037.59375 739.082031 1037.59375 809 "/>
<path style="fill:none;stroke-width:4.406628;stroke-linecap:butt;stroke-linejoin:miter;stroke:rgb(100%,69.019608%,0%);stroke-opacity:0.701539;stroke-miterlimit:10;" d="M 542 0 L 360 1000 "/>
<path style="fill:none;stroke-width:0.327601;stroke-linecap:butt;stroke-linejoin:miter;stroke:rgb(39.215686%,56.078431%,100%);stroke-opacity:1;stroke-miterlimit:10;" d="M 23 0 L 37 1000 "/>
<path style="fill:none;stroke-width:1.876082;stroke-linecap:butt;stroke-linejoin:miter;stroke:rgb(99.607843%,38.039216%,0%);stroke-opacity:1;stroke-miterlimit:10;" d="M 757 780 C 757 780 573 837 793 498 "/>
<path style=" stroke:none;fill-rule:nonzero;fill:rgb(47.058824%,36.862745%,94.117647%);fill-opacity:1;" d="M 1349.792969 128.53125 L 1238.671875 267.972656 L 862.277344 826.097656 L 1349.792969 128.53125 "/>
<path style="fill:none;stroke-width:9.589485;stroke-linecap:butt;stroke-linejoin:miter;stroke:rgb(100%,69.019608%,0%);stroke-opacity:0.947364;stroke-miterlimit:10;" d="M 1721.101562 443.652344 L 59.75 26.472656 L 1276.78125 250.621094 L 1721.101562 443.652344 "/>
<path style=" stroke:none;fill-rule:nonzero;fill:rgb(86.27451%,14.901961%,49.803922%);fill-opacity:1;" d="M 522.21875 283 C 522.21875 338.902344 476.902344 384.21875 421 384.21875 C 365.097656 384.21875 319.78125 338.902344 319.78125 283 C 319.78125 227.097656 365.097656 181.78125 421 181.78125 C 476.902344 181.78125 522.21875 227.097656 522.21875 283 "/>
<path style="fill:none;stroke-width:8.509924;stroke-linecap:butt;stroke-linejoin:miter;stroke:rgb(100%,69.019608%,0%);stroke-opacity:1;stroke-miterlimit:10;" d="M 0 849 L 1000 331 "/>
<path style="fill:none;stroke-width:4.549134;stroke-linecap:butt;stroke-linejoin:miter;stroke:rgb(99.607843%,38.039216%,0%);stroke-opacity:1;stroke-miterlimit:10;" d="M 611.585938 674 C 611.585938 782.570312 523.570312 870.585938 415 870.585938 C 306.429688 870.585938 218.414062 782.570312 218.414062 674 C 218.414062 565.429688 306.429688 477.414062 415 477.414062 C 523.570312 477.414062 611.585938 565.429688 611.585938 674 "/>
<path style="fill:none;stroke-width:0.971517;stroke-linecap:butt;stroke-linejoin:miter;stroke:rgb(100%,69.019608%,0%);stroke-opacity:0.594961;stroke-miterlimit:10;" d="M 723.410156 277 C 723.410156 319.199219 689.199219 353.410156 647 353.410156 C 604.800781 353.410156 570.589844 319.199219 570.589844 277 C 570.589844 234.800781 604.800781 200.589844 647 200.589844 C 689.199219 200.589844 723.410156 234.800781 723.410156 277 "/>
<path style=" stroke:none;fill-rule:nonzero;fill:rgb(86.27451%,14.901961%,49.803922%);fill-opacity:0.444518;" d="M 236.507812 236.324219 L 877.191406 835.554688 L 192.679688 412.921875 L 236.507812 236.324219 "/>
<path style=" stroke:none;fill-rule:nonzero;fill:rgb(86.27451%,14.901961%,49.803922%);fill-opacity:1;" d="M 347.460938 407.316406 L 80.882812 45.039062 L 265.621094 599.945312 L 347.460938 407.316406 "/>
<path style="fill:none;stroke-width:1.730373;stroke-linecap:butt;stroke-linejoin:miter;stroke:rgb(99.607843%,38.039216%,0%);stroke-opacity:0.298174;stroke-miterlimit:10;" d="M 343 606 C 343 606 56 620 415 550 "/>
<path style="fill:none;stroke-width:5.411214;stroke-linecap:butt;stroke-linejoin:miter;stroke:rgb(39.215686%,56.078431%,100%);stroke-opacity:1;stroke-miterlimit:10;" d="M 306 0 L 975 1000 "/>
<path style="fill:none;stroke-width:1.334795;stroke-linecap:butt;stroke-linejoin:miter;stroke:rgb(47.058824%,36.862745%,94.117647%);stroke-opacity:1;stroke-miterlimit:10;" d="M 661 0 L 816 1000 "/>
<path style="fill:none;stroke-width:5.936486;stroke-linecap:butt;stroke-linejoin:miter;stroke:rgb(86.27451%,14.901961%,49.803922%);stroke-opacity:1;stroke-miterlimit:10;" d="M 0 290 L 1000 576 "/>
<path style="fill:none;stroke-width:0.350659;stroke-linecap:butt;stroke-linejoin:miter;stroke:rgb(47.058824%,36.862745%,94.117647%);stroke-opacity:1;stroke-miterlimit:10;" d="M 0 110 L 1000 827 "/>
<path style="fill:none;stroke-width:8.407818;stroke-linecap:butt;stroke-linejoin:miter;stroke:rgb(100%,69.019608%,0%);stroke-opacity:0.903727;stroke-miterlimit:10;" d="M 771 0 L 950 1000 "/>
</g>
</svg>
