<?xml version="1.0" encoding="UTF-8"?>
<svg xmlns="http://www.w3.org/2000/svg" xmlns:xlink="http://www.w3.org/1999/xlink" width="1000pt" height="1000pt" viewBox="0 0 1000 1000" version="1.1">
<g id="surface1">
<rect x="0" y="0" width="1000" height="1000" style="fill:rgb(100%,100%,100%);fill-opacity:1;stroke:none;"/>
<path style="fill:none;stroke-width:3.254869;stroke-linecap:butt;stroke-linejoin:miter;stroke:rgb(99.607843%,38.039216%,0%);stroke-opacity:1;stroke-miterlimit:10;" d="M 674 637 L 505 544 "/>
<path style="fill:none;stroke-width:6.402833;stroke-linecap:butt;stroke-linejoin:miter;stroke:rgb(100%,69.019608%,0%);stroke-opacity:0.254311;stroke-miterlimit:10;" d="M 663 265 L 785 860 "/>
<path style="fill:none;stroke-width:3.242012;stroke-linecap:butt;stroke-linejoin:miter;stroke:rgb(47.058824%,36.862745%,94.117647%);stroke-opacity:1;stroke-miterlimit:10;" d="M 957 680 C 957 680 301 705 925 252 "/>
<path style="fill:none;stroke-width:2.243033;stroke-linecap:butt;stroke-linejoin:miter;stroke:rgb(86.27451%,14.901961%,49.803922%);stroke-opacity:0.929172;stroke-miterlimit:10;" d="M 0 385 L 1000 912 "/>
<path style="fill:none;stroke-width:9.90762;stroke-linecap:butt;stroke-linejoin:miter;stroke:rgb(86.27451%,14.901961%,49.803922%);stroke-opacity:1;stroke-miterlimit:10;" d="M 36 186 L 321 422 "/>
<path style="fill:none;stroke-width:9.829261;stroke-linecap:butt;stroke-linejoin:miter;stroke:rgb(100%,69.019608%,0%);stroke-opacity:1;stroke-miterlimit:10;" d="M 0 904 L 1000 11 "/>
<path style="fill:none;stroke-width:3.209656;stroke-linecap:butt;stroke-linejoin:miter;stroke:rgb(47.058824%,36.862745%,94.117647%);stroke-opacity:0.600374;stroke-miterlimit:10;" d="M 906.8125 725 C 906.8125 770.183594 870.183594 806.8125 825 806.8125 C 779.816406 806.8125 743.1875 770.183594 743.1875 725 C 743.1875 679.816406 779.816406 643.1875 825 643.1875 C 870.183594 643.1875 906.8125 679.816406 906.8125 725 "/>
<path style="fill:none;stroke-width:1.956188;stroke-linecap:butt;stroke-linejoin:miter;stroke:rgb(100%,69.019608%,0%);stroke-opacity:1;stroke-miterlimit:10;" d="M 815 163 C 815 163 586 927 232 905 "/>
<path style="fill:none;stroke-width:3.014668;stroke-linecap:butt;stroke-linejoin:miter;stroke:rgb(100%,69.019608%,0%);stroke-opacity:0.862699;stroke-miterlimit:10;" d="M 0 621 L 1000 13 "/>
<path style="fill:none;stroke-width:8.262928;stroke-linecap:butt;stroke-linejoin:miter;stroke:rgb(99.607843%,38.039216%,0%);stroke-opacity:0.437447;stroke-miterlimit:10;" d="M 202 142 L 178 850 "/>
<path style="fill:none;stroke-width:2.474417;stroke-linecap:butt;stroke-linejoin:miter;stroke:rgb(86.27451%,14.901961%,49.803922%);stroke-opacity:1;stroke-miterlimit:10;" d="M 578 61 C 578 61 933 256 23 443 "/>
<path style="fill:none;stroke-width:1.884915;stroke-linecap:butt;stroke-linejoin:miter;stroke:rgb(99.607843%,38.039216%,0%);stroke-opacity:1;stroke-miterlimit:10;" d="M 658 0 L 77 1000 "/>
<path style="fill:none;stroke-width:7.644803;stroke-linecap:butt;stroke-linejoin:miter;stroke:rgb(39.215686%,56.078431%,100%);stroke-opacity:1;stroke-miterlimit:10;" d="M 1076.34375 264 C 1076.34375 323.285156 1028.285156 371.34375 969 371.34375 C 909.714844 371.34375 861.65625 323.285156 861.65625 264 C 861.65625 204.714844 909.714844 156.65625 969 156.65625 C 1028.285156 156.65625 1076.34375 204.714844 1076.34375 264 "/>
<path style="fill:none;stroke-width:5.193052;stroke-linecap:butt;stroke-linejoin:miter;stroke:rgb(86.27451%,14.901961%,49.803922%);stroke-opacity:1;stroke-miterlimit:10;" d="M 605.046875 869 C 605.046875 910.445312 571.445312 944.046875 530 944.046875 C 488.554688 944.046875 454.953125 910.445312 454.953125 869 C 454.953125 827.554688 488.554688 793.953125 530 793.953125 C 571.445312 793.953125 605.046875 827.554688 605.046875 869 "/>
<path style="fill:none;stroke-width:5.68656;stroke-linecap:butt;stroke-linejoin:miter;stroke:rgb(47.058824%,36.862745%,94.117647%);stroke-opacity:0.47682;stroke-miterlimit:10;" d="M 919 453 C 919 453 230 252 775 19 "/>
<path style=" stroke:none;fill-rule:nonzero;fill:rgb(39.215686%,56.078431%,100%);fill-opacity:0.827826;" d="M 503.941406 221 C 503.941406 247.476562 482.476562 268.941406 456 268.941406 C 429.523438 268.941406 408.058594 247.476562 408.058594 221 C 408.058594 194.523438 429.523438 173.058594 456 173.058594 C 482.476562 173.058594 503.941406 194.523438 503.941406 221 "/>
<path style="fill:none;stroke-width:1.234564;stroke-linecap:butt;stroke-linejoin:miter;stroke:rgb(47.058824%,36.862745%,94.117647%);stroke-opacity:1;stroke-miterlimit:10;" d="M 879 0 L 921 1000 "/>
<path style="fill:none;stroke-width:3.420181;stroke-linecap:butt;stroke-linejoin:miter;stroke:rgb(100%,69.019608%,0%);stroke-opacity:1;stroke-miterlimit:10;" d="M 373 601 L 871 173 "/>
<path style="fill:none;stroke-width:9.84446;stroke-linecap:butt;stroke-linejoin:miter;stroke:rgb(86.27451%,14.901961%,49.803922%);stroke-opacity:0.835663;stroke-miterlimit:10;" d="M 109 744 C 109 744 757 856 14 855 "/>
<path style="fill:none;stroke-width:1.723585;stroke-linecap:butt;stroke-linejoin:miter;stroke:rgb(86.27451%,14.901961%,49.803922%);stroke-opacity:0.75921;stroke-miterlimit:10;" d="M 73 148 C 73 148 807 321 23 663 "/>
<path style="fill:none;stroke-width:2.895222;stroke-linecap:butt;stroke-linejoin:miter;stroke:rgb(39.215686%,56.078431%,100%);stroke-opacity:1;stroke-miterlimit:10;" d="M 285.660156 740 C 285.660156 821.550781 219.550781 887.660156 138 887.660156 C 56.449219 887.660156 -9.660156 821.550781 -9.660156 740 C -9.660156 658.449219 56.449219 592.339844 138 592.339844 C 219.550781 592.339844 285.660156 658.449219 285.660156 740 "/>
<path style="fill:none;stroke-width:0.37283;stroke-linecap:butt;stroke-linejoin:miter;stroke:rgb(99.607843%,38.039216%,0%);stroke-opacity:0.194711;stroke-miterlimit:10;" d="M 711.351562 393 C 711.351562 438.480469 674.480469 475.351562 629 475.351562 C 583.519531 475.351562 546.648438 438.480469 546.648438 393 C 546.648438 347.519531 583.519531 310.648438 629 310.648438 C 674.480469 310.648438 711.351562 347.519531 711.351562 393 "/>
<path style="fill:none;stroke-width:4.129181;stroke-linecap:butt;stroke-linejoin:miter;stroke:rgb(47.058824%,36.862745%,94.117647%);stroke-opacity:0.352751;stroke-miterlimit:10;" d="M 124 807 C 124 807 138 776 602 162 "/>
<path style="fill:none;stroke-width:8.721709;stroke-linecap:butt;stroke-linejoin:miter;stroke:rgb(47.058824%,36.862745%,94.117647%);stroke-opacity:1;stroke-miterlimit:10;" d="M 327 164 C 327 164 233 247 44 681 "/>
</g>
</svg>
