<?xml version="1.0" encoding="UTF-8"?>
<svg xmlns="http://www.w3.org/2000/svg" xmlns:xlink="http://www.w3.org/1999/xlink" width="1000pt" height="1000pt" viewBox="0 0 1000 1000" version="1.1">
<g id="surface1">
<rect x="0" y="0" width="1000" height="1000" style="fill:rgb(100%,100%,100%);fill-opacity:1;stroke:none;"/>
<path style="fill:none;stroke-width:0.387302;stroke-linecap:butt;stroke-linejoin:miter;stroke:rgb(47.058824%,36.862745%,94.117647%);stroke-opacity:0.801493;stroke-miterlimit:10;" d="M 692 212 C 692 212 391 375 30 565 "/>
<path style="fill:none;stroke-width:4.307916;stroke-linecap:butt;stroke-linejoin:miter;stroke:rgb(86.27451%,14.901961%,49.803922%);stroke-opacity:0.899824;stroke-miterlimit:10;" d="M 932 0 L 111 1000 "/>
<path style="fill:none;stroke-width:1.047864;stroke-linecap:butt;stroke-linejoin:miter;stroke:rgb(100%,69.019608%,0%);stroke-opacity:0.361766;stroke-miterlimit:10;" d="M 233 289 C 233 289 14 605 985 445 "/>
<path style=" stroke:none;fill-rule:nonzero;fill:rgb(39.215686%,56.078431%,100%);fill-opacity:1;" d="M 477.441406 683 C 477.441406 699.261719 464.261719 712.441406 448 712.441406 C 431.738281 712.441406 418.558594 699.261719 418.558594 683 C 418.558594 666.738281 431.738281 653.558594 448 653.558594 C 464.261719 653.558594 477.441406 666.738281 477.441406 683 "/>
<path style="fill:none;stroke-width:4.680397;stroke-linecap:butt;stroke-linejoin:miter;stroke:rgb(99.607843%,38.039216%,0%);stroke-opacity:1;stroke-miterlimit:10;" d="M 0 942 L 1000 315 "/>
<path style=" stroke:none;fill-rule:nonzero;fill:rgb(39.215686%,56.078431%,100%);fill-opacity:1;" d="M 999.917969 935 C 999.917969 1003.4375 944.4375 1058.917969 876 1058.917969 C 807.5625 1058.917969 752.082031 1003.4375 752.082031 935 C 752.082031 866.5625 807.5625 811.082031 876 811.082031 C 944.4375 811.082031 999.917969 866.5625 999.917969 935 "/>
<path style="fill:none;stroke-width:2.773134;stroke-linecap:butt;stroke-linejoin:miter;stroke:rgb(99.607843%,38.039216%,0%);stroke-opacity:0.556125;stroke-miterlimit:10;" d="M 143 777 L 728 689 "/>
<path style="fill:none;stroke-width:2.713449;stroke-linecap:butt;stroke-linejoin:miter;stroke:rgb(100%,69.019608%,0%);stroke-opacity:1;stroke-miterlimit:10;" d="M 23 187 L 306 45 "/>
<path style="fill:none;stroke-width:0.666822;stroke-linecap:butt;stroke-linejoin:miter;stroke:rgb(86.27451%,14.901961%,49.803922%);stroke-opacity:1;stroke-miterlimit:10;" d="M 640 0 L 165 1000 "/>
<path style="fill:none;stroke-width:5.88122;stroke-linecap:butt;stroke-linejoin:miter;stroke:rgb(39.215686%,56.078431%,100%);stroke-opacity:1;stroke-miterlimit:10;" d="M 101 907 L 495 302 "/>
<path style="fill:none;stroke-width:8.00856;stroke-linecap:butt;stroke-linejoin:miter;stroke:rgb(39.215686%,56.078431%,100%);stroke-opacity:1;stroke-miterlimit:10;" d="M 335 985 C 335 985 847 570 367 376 "/>
<path style="fill:none;stroke-width:5.969599;stroke-linecap:butt;stroke-linejoin:miter;stroke:rgb(86.27451%,14.901961%,49.803922%);stroke-opacity:0.320727;stroke-miterlimit:10;" d="M 0 126 L 1000 751 "/>
<path style="fill:none;stroke-width:9.824295;stroke-linecap:butt;stroke-linejoin:miter;stroke:rgb(99.607843%,38.039216%,0%);stroke-opacity:0.391481;stroke-miterlimit:10;" d="M 1041.453125 483 C 1041.453125 546.210938 990.210938 597.453125 927 597.453125 C 863.789062 597.453125 812.546875 546.210938 812.546875 483 C 812.546875 419.789062 863.789062 368.546875 927 368.546875 C 990.210938 368.546875 1041.453125 419.789062 1041.453125 483 "/>
<path style="fill:none;stroke-width:8.239552;stroke-linecap:butt;stroke-linejoin:miter;stroke:rgb(39.215686%,56.078431%,100%);stroke-opacity:1;stroke-miterlimit:10;" d="M 719 0 L 717 1000 "/>
<path style="fill:none;stroke-width:1.49968;stroke-linecap:butt;stroke-linejoin:miter;stroke:rgb(99.607843%,38.039216%,0%);stroke-opacity:1;stroke-miterlimit:10;" d="M 679.09375 346 C 679.09375 413.980469 623.980469 469.09375 556 469.09375 C 488.019531 469.09375 432.90625 413.980469 432.90625 346 C 432.90625 278.019531 488.019531 222.90625 556 222.90625 C 623.980469 222.90625 679.09375 278.019531 679.09375 346 "/>
<path style=" stroke:none;fill-rule:nonzero;fill:rgb(86.27451%,14.901961%,49.803922%);fill-opacity:0.0802053;" d="M 196.375 524 C 196.375 527.519531 193.519531 530.375 190 530.375 C 186.480469 530.375 183.625 527.519531 183.625 524 C 183.625 520.480469 186.480469 517.625 190 517.625 C 193.519531 517.625 196.375 520.480469 196.375 524 "/>
<path style="fill:none;stroke-width:2.427765;stroke-linecap:butt;stroke-linejoin:miter;stroke:rgb(39.215686%,56.078431%,100%);stroke-opacity:0.51562;stroke-miterlimit:10;" d="M 695 314 C 695 314 653 29 990 188 "/>
<path style="fill:none;stroke-width:9.378755;stroke-linecap:butt;stroke-linejoin:miter;stroke:rgb(86.27451%,14.901961%,49.803922%);stroke-opacity:1;stroke-miterlimit:10;" d="M 139 702 L 587 632 "/>
<path style="fill:none;stroke-width:4.953253;stroke-linecap:butt;stroke-linejoin:miter;stroke:rgb(47.058824%,36.862745%,94.117647%);stroke-opacity:1;stroke-miterlimit:10;" d="M 0 737 L 1000 866 "/>
<path style=" stroke:none;fill-rule:nonzero;fill:rgb(100%,69.019608%,0%);fill-opacity:0.0123567;" d="M 667.570312 665 C 667.570312 763.621094 587.621094 843.570312 489 843.570312 C 390.378906 843.570312 310.429688 763.621094 310.429688 665 C 310.429688 566.378906 390.378906 486.429688 489 486.429688 C 587.621094 486.429688 667.570312 566.378906 667.570312 665 "/>
<path style="fill:none;stroke-width:8.100112;stroke-linecap:butt;stroke-linejoin:miter;stroke:rgb(99.607843%,38.039216%,0%);stroke-opacity:1;stroke-miterlimit:10;" d="M 495 565 L 681 927 "/>
<path style="fill:none;stroke-width:2.829945;stroke-linecap:butt;stroke-linejoin:miter;stroke:rgb(39.215686%,56.078431%,100%);stroke-opacity:1;stroke-miterlimit:10;" d="M 665 604 L 165 449 "/>
<path style="fill:none;stroke-width:4.959781;stroke-linecap:butt;stroke-linejoin:miter;stroke:rgb(39.215686%,56.078431%,100%);stroke-opacity:1;stroke-miterlimit:10;" d="M 794 670 L 129 876 "/>
<path style="fill:none;stroke-width:8.803915;stroke-linecap:butt;stroke-linejoin:miter;stroke:rgb(86.27451%,14.901961%,49.803922%);stroke-opacity:0.192824;stroke-miterlimit:10;" d="M 74 736 C 74 736 56 606 410 870 "/>
</g>
</svg>
