<?xml version="1.0" encoding="UTF-8"?>
<svg xmlns="http://www.w3.org/2000/svg" xmlns:xlink="http://www.w3.org/1999/xlink" width="1000pt" height="1000pt" viewBox="0 0 1000 1000" version="1.1">
<g id="surface1">
<rect x="0" y="0" width="1000" height="1000" style="fill:rgb(100%,100%,100%);fill-opacity:1;stroke:none;"/>
<path style=" stroke:none;fill-rule:nonzero;fill:rgb(39.215686%,56.078431%,100%);fill-opacity:0.500736;" d="M 736.308594 128.886719 L 520.375 22.824219 L 415.914062 144.46875 L 736.308594 128.886719 "/>
<path style="fill:none;stroke-width:0.570656;stroke-linecap:butt;stroke-linejoin:miter;stroke:rgb(86.27451%,14.901961%,49.803922%);stroke-opacity:1;stroke-miterlimit:10;" d="M 15.894531 1266.28125 L 105.480469 495.164062 L 74.382812 118.773438 L 15.894531 1266.28125 "/>
<path style=" stroke:none;fill-rule:nonzero;fill:rgb(47.058824%,36.862745%,94.117647%);fill-opacity:1;" d="M 725.046875 926 C 725.046875 932.101562 720.101562 937.046875 714 937.046875 C 707.898438 937.046875 702.953125 932.101562 702.953125 926 C 702.953125 919.898438 707.898438 914.953125 714 914.953125 C 720.101562 914.953125 725.046875 919.898438 725.046875 926 "/>
<path style="fill:none;stroke-width:2.327395;stroke-linecap:butt;stroke-linejoin:miter;stroke:rgb(100%,69.019608%,0%);stroke-opacity:0.285566;stroke-miterlimit:10;" d="M 582 872 L 713 741 "/>
<path style=" stroke:none;fill-rule:nonzero;fill:rgb(86.27451%,14.901961%,49.803922%);fill-opacity:1;" d="M 28.398438 240.035156 L 3.371094 574.621094 L 5.355469 457.140625 L 28.398438 240.035156 "/>
<path style="fill:none;stroke-width:6.294756;stroke-linecap:butt;stroke-linejoin:miter;stroke:rgb(86.27451%,14.901961%,49.803922%);stroke-opacity:1;stroke-miterlimit:10;" d="M 299 684 C 299 684 850 31 472 884 "/>
<path style="fill:none;stroke-width:0.899555;stroke-linecap:butt;stroke-linejoin:miter;stroke:rgb(47.058824%,36.862745%,94.117647%);stroke-opacity:1;stroke-miterlimit:10;" d="M 0 507 L 1000 830 "/>
<path style=" stroke:none;fill-rule:nonzero;fill:rgb(99.607843%,38.039216%,0%);fill-opacity:1;" d="M 645.425781 198.742188 L 109.511719 1383.914062 L 73.5625 13.253906 L 645.425781 198.742188 "/>
<path style="fill:none;stroke-width:2.417382;stroke-linecap:butt;stroke-linejoin:miter;stroke:rgb(99.607843%,38.039216%,0%);stroke-opacity:1;stroke-miterlimit:10;" d="M 225 356 C 225 356 596 505 988 174 "/>
<path style="fill:none;stroke-width:8.277812;stroke-linecap:butt;stroke-linejoin:miter;stroke:rgb(86.27451%,14.901961%,49.803922%);stroke-opacity:0.626274;stroke-miterlimit:10;" d="M 21 0 L 995 1000 "/>
<path style=" stroke:none;fill-rule:nonzero;fill:rgb(39.215686%,56.078431%,100%);fill-opacity:1;" d="M 975.910156 724.5 L 108.152344 16.476562 L 1.789062 143.316406 L 975.910156 724.5 "/>
<path style="fill:none;stroke-width:0.770666;stroke-linecap:butt;stroke-linejoin:miter;stroke:rgb(99.607843%,38.039216%,0%);stroke-opacity:0.363792;stroke-miterlimit:10;" d="M 788.125 458 C 788.125 540.359375 721.359375 607.125 639 607.125 C 556.640625 607.125 489.875 540.359375 489.875 458 C 489.875 375.640625 556.640625 308.875 639 308.875 C 721.359375 308.875 788.125 375.640625 788.125 458 "/>
<path style=" stroke:none;fill-rule:nonzero;fill:rgb(47.058824%,36.862745%,94.117647%);fill-opacity:0.569086;" d="M 347.523438 342 C 347.523438 348.363281 342.363281 353.523438 336 353.523438 C 329.636719 353.523438 324.476562 348.363281 324.476562 342 C 324.476562 335.636719 329.636719 330.476562 336 330.476562 C 342.363281 330.476562 347.523438 335.636719 347.523438 342 "/>
<path style="fill:none;stroke-width:1.971543;stroke-linecap:butt;stroke-linejoin:miter;stroke:rgb(47.058824%,36.862745%,94.117647%);stroke-opacity:0.449275;stroke-miterlimit:10;" d="M 458.929688 440.222656 L 282.332031 104.160156 L 349.578125 1459.605469 L 458.929688 440.222656 "/>
<path style="fill:none;stroke-width:3.659024;stroke-linecap:butt;stroke-linejoin:miter;stroke:rgb(39.215686%,56.078431%,100%);stroke-opacity:1;stroke-miterlimit:10;" d="M 285 835 L 642 934 "/>
<path style="fill:none;stroke-width:0.297437;stroke-linecap:butt;stroke-linejoin:miter;stroke:rgb(100%,69.019608%,0%);stroke-opacity:1;stroke-miterlimit:10;" d="M 418 0 L 36 1000 "/>
<path style="fill:none;stroke-width:2.527703;stroke-linecap:butt;stroke-linejoin:miter;stroke:rgb(39.215686%,56.078431%,100%);stroke-opacity:1;stroke-miterlimit:10;" d="M 121.347656 91.585938 L 916.308594 277.554688 L 640.382812 1127.609375 L 121.347656 91.585938 "/>
<path style="fill:none;stroke-width:9.704717;stroke-linecap:butt;stroke-linejoin:miter;stroke:rgb(99.607843%,38.039216%,0%);stroke-opacity:1;stroke-miterlimit:10;" d="M 563.894531 120 C 563.894531 244.757812 462.757812 345.894531 338 345.894531 C 213.242188 345.894531 112.105469 244.757812 112.105469 120 C 112.105469 -4.757812 213.242188 -105.894531 338 -105.894531 C 462.757812 -105.894531 563.894531 -4.757812 563.894531 120 "/>
<path style="fill:none;stroke-width:8.848878;stroke-linecap:butt;stroke-linejoin:miter;stroke:rgb(47.058824%,36.862745%,94.117647%);stroke-opacity:0.254081;stroke-miterlimit:10;" d="M 999 755 C 999 755 183 798 814 43 "/>
<path style="fill:none;stroke-width:8.661514;stroke-linecap:butt;stroke-linejoin:miter;stroke:rgb(99.607843%,38.039216%,0%);stroke-opacity:0.897957;stroke-miterlimit:10;" d="M 815 0 L 570 1000 "/>
<path style=" stroke:none;fill-rule:nonzero;fill:rgb(99.607843%,38.039216%,0%);fill-opacity:1;" d="M 367.851562 644.472656 L 1409.953125 100.167969 L 474.734375 124.5625 L 367.851562 644.472656 "/>
<path style=" stroke:none;fill-rule:nonzero;fill:rgb(47.058824%,36.862745%,94.117647%);fill-opacity:1;" d="M 789.199219 94 C 789.199219 211.746094 693.746094 307.199219 576 307.199219 C 458.253906 307.199219 362.800781 211.746094 362.800781 94 C 362.800781 -23.746094 458.253906 -119.199219 576 -119.199219 C 693.746094 -119.199219 789.199219 -23.746094 789.199219 94 "/>
<path style="fill:none;stroke-width:0.601258;stroke-linecap:butt;stroke-linejoin:miter;stroke:rgb(47.058824%,36.862745%,94.117647%);stroke-opacity:1;stroke-miterlimit:10;" d="M 273.589844 455.222656 L 6.472656 106.839844 L 154.503906 129.867188 L 273.589844 455.222656 "/>
<path style="fill:none;stroke-width:1.163071;stroke-linecap:butt;stroke-linejoin:miter;stroke:rgb(100%,69.019608%,0%);stroke-opacity:0.350028;stroke-miterlimit:10;" d="M 160 0 L 183 1000 "/>
<path style=" stroke:none;fill-rule:nonzero;fill:rgb(99.607843%,38.039216%,0%);fill-opacity:0.639107;" d="M 631.699219 165 C 631.699219 171.265625 622.300781 171.265625 622.300781 165 C 622.300781 158.734375 631.699219 158.734375 631.699219 165 "/>
</g>
</svg>
